{"glyphs":{"0":{"ha":897,"x_min":74,"x_max":823,"o":"m 74 519 q 161 896 74 760 q 449 1032 248 1032 q 737 896 650 1032 q 823 519 823 760 q 736 140 823 278 q 449 3 650 3 q 161 140 248 3 q 74 519 74 278 m 265 519 q 278 342 265 414 q 331 227 290 271 q 449 183 371 183 q 567 227 527 183 q 620 342 607 271 q 632 519 632 414 q 619 692 632 623 q 566 807 606 762 q 449 851 526 851 q 331 807 371 851 q 278 692 292 762 q 265 519 265 623 z "},"1":{"ha":503,"x_min":50,"x_max":385,"o":"m 50 833 l 50 1013 l 385 1013 l 385 0 l 184 0 l 184 833 l 50 833 z "},"2":{"ha":797,"x_min":61,"x_max":749,"o":"m 61 696 q 160 949 66 863 q 399 1035 254 1035 q 642 951 557 1035 q 726 729 726 867 q 668 522 726 621 q 535 351 610 424 q 339 175 460 278 l 749 175 l 749 14 l 62 14 l 62 158 l 135 220 q 348 405 269 331 q 479 560 427 479 q 532 718 532 640 q 498 829 532 789 q 396 869 465 869 q 289 823 327 869 q 250 696 252 777 l 61 696 z "},"3":{"ha":831,"x_min":62,"x_max":751,"o":"m 62 306 l 252 306 q 298 197 254 238 q 418 155 342 155 q 527 195 488 155 q 566 297 566 235 q 513 417 566 380 q 349 453 460 453 l 309 453 l 309 612 l 349 612 q 546 745 546 612 q 510 838 546 804 q 408 871 475 871 q 308 836 343 871 q 267 746 272 800 l 77 746 q 174 961 83 885 q 414 1036 265 1036 q 588 1001 515 1036 q 696 905 660 965 q 733 768 733 844 q 688 620 733 681 q 581 539 643 559 l 581 533 q 706 444 661 508 q 751 281 751 380 q 713 132 751 197 q 601 30 675 66 q 422 -7 526 -7 q 167 72 266 -7 q 62 306 68 151 z "},"4":{"ha":918,"x_min":65,"x_max":868,"o":"m 65 197 l 65 350 l 519 1000 l 746 1000 l 746 367 l 868 367 l 868 197 l 746 197 l 746 0 l 551 0 l 551 197 l 65 197 m 279 367 l 564 367 l 564 791 l 279 367 z "},"5":{"ha":894,"x_min":110,"x_max":819,"o":"m 110 286 l 298 286 q 355 197 311 231 q 467 164 399 164 q 590 215 549 164 q 632 351 632 267 q 590 483 632 437 q 465 528 547 528 q 368 498 407 528 q 313 421 329 469 l 126 421 l 126 1015 l 754 1015 l 754 844 l 304 844 l 304 607 q 388 666 334 643 q 503 689 441 689 q 685 640 614 689 q 787 516 755 591 q 819 354 819 440 q 728 97 819 194 q 469 0 637 0 q 217 79 311 0 q 110 286 122 158 z "},"6":{"ha":888,"x_min":96,"x_max":808,"o":"m 96 522 q 183 906 96 777 q 460 1036 271 1036 q 686 957 606 1036 q 779 760 766 878 l 599 760 q 551 847 585 818 q 453 876 517 876 q 312 799 357 876 q 265 549 267 722 q 362 635 298 604 q 501 667 427 667 q 661 628 591 667 q 769 514 730 589 q 808 336 808 440 q 769 161 808 238 q 653 40 729 83 q 471 -3 576 -3 q 244 61 326 -3 q 129 239 161 125 q 96 522 96 354 m 283 339 q 330 210 283 257 q 461 163 376 163 q 580 209 536 163 q 624 332 624 254 q 582 460 624 412 q 457 507 539 507 q 333 464 383 507 q 283 339 283 421 z "},"7":{"ha":761,"x_min":49,"x_max":718,"o":"m 49 843 l 49 1010 l 718 1010 l 718 865 l 349 0 l 151 0 l 524 843 l 49 843 z "},"8":{"ha":892,"x_min":81,"x_max":812,"o":"m 81 288 q 124 439 81 375 q 243 536 167 504 q 104 760 104 608 q 142 897 104 835 q 258 995 180 958 q 446 1032 335 1032 q 634 995 557 1032 q 749 897 711 958 q 787 760 787 835 q 750 626 787 683 q 650 536 713 568 q 769 439 726 503 q 812 288 812 375 q 765 123 812 193 q 633 15 717 53 q 446 -22 550 -22 q 259 15 341 -22 q 129 123 176 53 q 81 288 81 193 m 268 296 q 316 183 268 227 q 446 139 364 139 q 575 183 528 139 q 623 296 623 228 q 574 411 623 370 q 446 452 525 452 q 317 411 367 452 q 268 296 268 371 m 294 730 q 337 630 294 668 q 446 593 379 593 q 555 631 512 593 q 599 732 599 669 q 558 838 599 800 q 446 875 517 875 q 335 838 376 875 q 294 730 294 800 z "},"9":{"ha":869,"x_min":90,"x_max":791,"o":"m 90 700 q 182 945 90 854 q 432 1036 273 1036 q 710 910 629 1036 q 791 529 791 783 q 760 233 791 349 q 653 58 729 118 q 447 -1 578 -1 q 272 38 344 -1 q 162 142 200 78 q 118 285 123 207 l 298 285 q 349 191 310 224 q 456 158 389 158 q 581 230 542 158 q 619 471 619 301 q 530 401 587 426 q 406 376 472 376 q 245 413 317 376 q 132 523 174 450 q 90 700 90 596 m 277 701 q 319 581 277 627 q 446 534 361 534 q 560 579 518 534 q 602 699 602 624 q 558 826 602 781 q 439 871 514 871 q 320 824 363 871 q 277 701 277 778 z "},"\u0000":{"ha":0,"x_min":0,"x_max":0,"o":""},"\r":{"ha":330,"x_min":0,"x_max":0,"o":""}," ":{"ha":330,"x_min":0,"x_max":0,"o":""},"!":{"ha":491,"x_min":126,"x_max":366,"o":"m 126 104 q 160 186 126 153 q 248 218 195 218 q 332 185 299 218 q 366 104 366 153 q 332 23 366 56 q 248 -9 298 -9 q 160 23 195 -9 q 126 104 126 56 m 138 986 l 347 986 l 325 315 l 161 315 l 138 986 z "},"\"":{"ha":505,"x_min":52,"x_max":454,"o":"m 52 1108 l 218 1108 l 201 814 l 69 814 l 52 1108 m 286 1108 l 454 1108 l 436 814 l 304 814 l 286 1108 z "},"#":{"ha":1232,"x_min":36,"x_max":1165,"o":"m 36 236 l 36 410 l 283 410 l 329 624 l 121 624 l 121 798 l 367 798 l 415 1028 l 599 1028 l 550 798 l 803 798 l 851 1028 l 1036 1028 l 987 798 l 1165 798 l 1165 624 l 950 624 l 904 410 l 1080 410 l 1080 236 l 867 236 l 817 0 l 632 0 l 682 236 l 429 236 l 379 0 l 196 0 l 245 236 l 36 236 m 467 410 l 720 410 l 765 624 l 513 624 l 467 410 z "},"$":{"ha":908,"x_min":74,"x_max":787,"o":"m 74 271 l 282 271 q 385 150 290 171 l 385 415 q 224 465 285 440 q 118 546 163 490 q 74 697 74 602 q 161 895 74 818 q 385 982 248 971 l 385 1095 l 473 1095 l 473 982 q 687 902 607 971 q 777 710 766 832 l 567 710 q 538 780 563 750 q 473 822 514 810 l 473 559 q 638 509 578 533 q 743 430 699 485 q 787 279 787 375 q 751 144 787 207 q 643 40 714 81 q 473 -8 571 -1 l 473 -121 l 385 -121 l 385 -7 q 161 77 245 5 q 74 271 77 149 m 277 707 q 304 633 277 661 q 385 586 332 604 l 385 827 q 306 789 334 820 q 277 707 277 758 m 473 147 q 556 190 526 157 q 586 271 586 224 q 557 345 586 317 q 473 390 528 372 l 473 147 z "},"%":{"ha":1151,"x_min":52,"x_max":1100,"o":"m 52 764 q 113 929 52 869 q 272 989 175 989 q 431 929 369 989 q 493 764 493 869 q 431 597 493 656 q 272 538 370 538 q 113 597 175 538 q 52 764 52 657 m 195 764 q 271 654 195 654 q 329 681 308 654 q 350 764 350 708 q 271 872 350 872 q 195 764 195 872 m 208 0 l 753 972 l 943 972 l 397 0 l 208 0 m 661 210 q 723 376 661 317 q 882 435 785 435 q 1039 376 979 435 q 1100 210 1100 317 q 1040 43 1100 102 q 882 -17 979 -17 q 722 43 783 -17 q 661 210 661 103 m 880 318 q 802 210 802 318 q 880 100 802 100 q 958 210 958 100 q 880 318 958 318 z "},"&":{"ha":1080,"x_min":49,"x_max":1080,"o":"m 49 281 q 103 453 49 376 q 262 576 157 529 q 209 665 225 623 q 192 755 192 707 q 227 876 192 822 q 326 960 261 929 q 476 990 390 990 q 626 957 564 990 q 720 868 689 924 q 746 745 750 812 l 557 745 q 535 815 558 791 q 471 839 511 839 q 406 816 432 839 q 380 757 380 793 q 401 688 380 722 q 469 604 422 654 l 714 363 q 718 368 717 366 q 721 374 720 371 l 800 505 l 1003 505 l 905 335 q 846 232 878 281 l 1080 0 l 842 0 l 736 104 q 407 -17 601 -16 q 219 20 300 -17 q 93 124 138 57 q 49 281 49 192 m 240 292 q 288 187 240 229 q 412 144 335 144 q 614 225 526 144 l 375 461 q 240 292 240 401 z "},"'":{"ha":271,"x_min":52,"x_max":218,"o":"m 52 1108 l 218 1108 l 201 814 l 69 814 l 52 1108 z "},"(":{"ha":673,"x_min":149,"x_max":648,"o":"m 149 494 q 227 941 149 732 q 453 1283 304 1150 l 648 1283 l 648 1265 q 416 916 496 1120 q 336 494 336 711 q 412 87 336 283 q 628 -254 488 -110 l 628 -273 l 432 -273 q 223 60 297 -143 q 149 494 149 262 z "},")":{"ha":673,"x_min":25,"x_max":525,"o":"m 25 1265 l 25 1283 l 221 1283 q 447 941 370 1149 q 525 494 525 732 q 451 60 525 262 q 241 -273 376 -143 l 46 -273 l 46 -254 q 262 87 186 -110 q 338 494 338 283 q 258 915 338 711 q 25 1265 178 1120 z "},"*":{"ha":719,"x_min":94,"x_max":624,"o":"m 94 699 l 275 764 l 96 827 l 167 954 l 321 832 l 289 1025 l 435 1025 l 401 832 l 554 953 l 624 828 l 443 762 l 624 697 l 551 568 l 401 692 l 433 500 l 289 500 l 319 692 l 171 566 l 94 699 z "},"+":{"ha":936,"x_min":114,"x_max":822,"o":"m 114 410 l 114 579 l 376 579 l 376 848 l 559 848 l 559 579 l 822 579 l 822 410 l 559 410 l 559 140 l 376 140 l 376 410 l 114 410 z "},",":{"ha":353,"x_min":21,"x_max":309,"o":"m 21 -186 l 111 204 l 309 204 l 146 -186 l 21 -186 z "},"-":{"ha":809,"x_min":98,"x_max":688,"o":"m 98 414 l 98 578 l 688 578 l 688 414 l 98 414 z "},".":{"ha":361,"x_min":61,"x_max":300,"o":"m 61 104 q 95 186 61 153 q 182 218 129 218 q 267 185 233 218 q 300 104 300 153 q 267 23 300 56 q 182 -9 233 -9 q 95 23 129 -9 q 61 104 61 56 z "},"/":{"ha":675,"x_min":52,"x_max":616,"o":"m 52 -252 l 427 1315 l 616 1315 l 241 -252 l 52 -252 z "},":":{"ha":365,"x_min":61,"x_max":300,"o":"m 61 104 q 95 186 61 153 q 182 218 129 218 q 267 185 233 218 q 300 104 300 153 q 267 23 300 56 q 182 -9 233 -9 q 95 23 129 -9 q 61 104 61 56 m 61 680 q 95 761 61 728 q 182 793 129 793 q 267 761 233 793 q 300 680 300 728 q 267 598 300 631 q 182 566 233 566 q 95 598 129 566 q 61 680 61 631 z "},";":{"ha":450,"x_min":57,"x_max":345,"o":"m 57 -186 l 147 204 l 345 204 l 182 -186 l 57 -186 m 96 674 q 130 755 96 723 q 216 788 163 788 q 301 755 268 788 q 334 674 334 722 q 301 593 334 625 q 216 560 268 560 q 130 593 163 560 q 96 674 96 625 z "},"<":{"ha":811,"x_min":110,"x_max":657,"o":"m 110 494 l 412 806 l 657 806 l 354 494 l 657 183 l 412 183 l 110 494 z "},"=":{"ha":1025,"x_min":134,"x_max":890,"o":"m 134 243 l 134 412 l 890 412 l 890 243 l 134 243 m 134 576 l 134 746 l 890 746 l 890 576 l 134 576 z "},">":{"ha":787,"x_min":123,"x_max":672,"o":"m 123 183 l 428 494 l 123 806 l 370 806 l 672 494 l 370 183 l 123 183 z "},"?":{"ha":747,"x_min":47,"x_max":688,"o":"m 49 710 q 85 861 47 795 q 195 965 122 928 q 367 1003 268 1003 q 600 924 511 1003 q 688 708 688 846 q 600 500 688 572 q 368 429 513 429 l 363 322 l 192 322 l 184 558 l 248 558 q 433 590 368 558 q 498 707 498 623 q 463 804 498 768 q 367 840 428 840 q 268 806 303 840 q 232 710 232 771 l 49 710 m 155 104 q 190 186 155 153 q 277 218 224 218 q 361 185 328 218 q 395 104 395 153 q 361 23 395 56 q 277 -9 328 -9 q 190 23 224 -9 q 155 104 155 56 z "},"@":{"ha":1459,"x_min":98,"x_max":1360,"o":"m 98 182 q 194 553 98 386 q 458 815 289 720 q 836 911 627 911 q 1115 851 997 911 q 1297 683 1234 791 q 1360 433 1360 575 q 1320 218 1360 319 q 1205 54 1280 117 q 1028 -8 1131 -8 q 911 22 956 -8 q 854 107 867 52 q 750 22 814 53 q 615 -9 686 -9 q 450 54 509 -9 q 390 227 390 117 q 433 421 390 331 q 553 566 476 511 q 725 621 629 621 q 889 538 844 621 l 901 610 l 1064 610 l 999 235 q 994 186 995 208 q 1008 136 994 153 q 1055 119 1022 119 q 1140 166 1105 119 q 1191 284 1174 214 q 1208 427 1208 355 q 1106 687 1208 595 q 815 779 1003 779 q 526 702 655 779 q 325 492 397 625 q 252 197 252 359 q 354 -68 252 25 q 643 -161 456 -161 q 880 -113 778 -161 l 908 -240 q 615 -296 776 -296 q 343 -237 460 -296 q 162 -70 227 -178 q 98 182 98 39 m 566 258 q 593 168 566 201 q 676 135 621 135 q 768 164 726 135 q 834 242 810 193 q 859 346 859 290 q 826 440 859 404 q 737 476 794 476 q 647 445 686 476 q 587 364 608 414 q 566 258 566 314 z "},"A":{"ha":994,"x_min":36,"x_max":960,"o":"m 36 0 l 385 971 l 611 971 l 960 0 l 754 0 l 690 184 l 304 184 l 240 0 l 36 0 m 357 340 l 637 340 l 497 746 l 357 340 z "},"B":{"ha":892,"x_min":96,"x_max":833,"o":"m 96 0 l 96 970 l 496 970 q 666 938 594 970 q 774 848 737 905 q 811 720 811 791 q 766 578 811 635 q 646 497 721 521 q 781 415 728 482 q 833 262 833 349 q 795 125 833 184 q 685 33 757 66 q 514 0 612 0 l 96 0 m 290 158 l 486 158 q 596 192 557 158 q 636 286 636 225 q 594 384 636 349 q 482 419 553 419 l 290 419 l 290 158 m 290 570 l 468 570 q 575 601 537 570 q 612 690 612 632 q 575 781 612 749 q 468 812 538 812 l 290 812 l 290 570 z "},"C":{"ha":1066,"x_min":49,"x_max":996,"o":"m 49 486 q 113 743 49 629 q 290 919 178 856 q 541 982 401 982 q 825 899 703 982 q 996 668 947 815 l 772 668 q 679 772 739 737 q 539 807 618 807 q 388 767 454 807 q 286 655 322 728 q 249 486 249 583 q 286 317 249 391 q 388 205 322 244 q 539 165 454 165 q 679 201 618 165 q 772 306 739 236 l 996 306 q 825 75 947 157 q 541 -8 704 -8 q 290 55 401 -8 q 113 231 178 118 q 49 486 49 343 z "},"D":{"ha":996,"x_min":96,"x_max":946,"o":"m 96 0 l 96 970 l 435 970 q 703 910 587 970 q 883 740 819 850 q 946 484 946 629 q 883 229 946 338 q 703 60 819 119 q 435 0 587 0 l 96 0 m 290 165 l 428 165 q 664 249 581 165 q 747 484 747 332 q 664 720 747 635 q 428 806 581 806 l 290 806 l 290 165 z "},"E":{"ha":739,"x_min":96,"x_max":659,"o":"m 96 0 l 96 971 l 659 971 l 659 812 l 290 812 l 290 570 l 616 570 l 616 415 l 290 415 l 290 158 l 659 158 l 659 0 l 96 0 z "},"F":{"ha":736,"x_min":96,"x_max":694,"o":"m 96 0 l 96 970 l 694 970 l 694 812 l 290 812 l 290 564 l 600 564 l 600 410 l 290 410 l 290 0 l 96 0 z "},"G":{"ha":1066,"x_min":49,"x_max":1018,"o":"m 49 486 q 113 743 49 629 q 291 919 178 856 q 543 982 404 982 q 828 902 707 982 q 994 677 949 822 l 771 677 q 679 771 738 739 q 543 803 621 803 q 390 764 457 803 q 286 653 323 725 q 249 486 249 581 q 287 317 249 389 q 393 205 325 244 q 551 167 461 167 q 733 226 663 167 q 827 390 804 285 l 493 390 l 493 539 l 1018 539 l 1018 370 q 935 182 998 268 q 770 44 871 96 q 545 -8 669 -8 q 291 55 404 -8 q 113 231 178 118 q 49 486 49 343 z "},"H":{"ha":996,"x_min":96,"x_max":900,"o":"m 96 0 l 96 970 l 290 970 l 290 571 l 705 571 l 705 970 l 900 970 l 900 0 l 705 0 l 705 412 l 290 412 l 290 0 l 96 0 z "},"I":{"ha":386,"x_min":96,"x_max":290,"o":"m 96 0 l 96 970 l 290 970 l 290 0 l 96 0 z "},"J":{"ha":791,"x_min":50,"x_max":661,"o":"m 50 296 l 244 296 q 274 199 245 233 q 357 164 302 164 q 437 197 410 164 q 465 289 465 231 l 465 970 l 661 970 l 661 289 q 579 69 661 147 q 359 -9 497 -9 q 135 71 220 -9 q 50 296 50 151 z "},"K":{"ha":920,"x_min":96,"x_max":889,"o":"m 96 0 l 96 970 l 290 970 l 290 534 l 643 970 l 878 970 l 478 489 l 889 0 l 643 0 l 290 432 l 290 0 l 96 0 z "},"L":{"ha":637,"x_min":96,"x_max":610,"o":"m 96 0 l 96 970 l 290 970 l 290 154 l 610 154 l 610 0 l 96 0 z "},"M":{"ha":1249,"x_min":96,"x_max":1153,"o":"m 96 0 l 96 970 l 317 970 l 625 249 l 933 970 l 1153 970 l 1153 0 l 958 0 l 958 631 l 699 0 l 551 0 l 290 631 l 290 0 l 96 0 z "},"N":{"ha":1021,"x_min":96,"x_max":925,"o":"m 96 0 l 96 971 l 290 971 l 730 304 l 730 971 l 925 971 l 925 0 l 730 0 l 290 665 l 290 0 l 96 0 z "},"O":{"ha":1090,"x_min":49,"x_max":1042,"o":"m 49 488 q 115 743 49 629 q 296 920 182 856 q 546 983 410 983 q 797 920 684 983 q 976 743 909 856 q 1042 488 1042 629 q 976 231 1042 345 q 796 54 909 118 q 546 -9 682 -9 q 296 54 410 -9 q 115 231 182 118 q 49 488 49 345 m 249 488 q 286 317 249 391 q 391 203 323 243 q 546 164 458 164 q 700 203 633 164 q 804 316 766 243 q 842 488 842 390 q 804 657 842 585 q 700 769 766 730 q 546 808 633 808 q 391 769 458 808 q 286 657 323 730 q 249 488 249 585 z "},"P":{"ha":844,"x_min":96,"x_max":803,"o":"m 96 0 l 96 970 l 453 970 q 645 931 566 970 q 763 824 724 892 q 803 669 803 755 q 766 524 803 591 q 651 414 729 456 q 453 372 572 372 l 290 372 l 290 0 l 96 0 m 290 529 l 444 529 q 564 566 525 529 q 603 669 603 603 q 444 811 603 811 l 290 811 l 290 529 z "},"Q":{"ha":1093,"x_min":49,"x_max":1060,"o":"m 49 488 q 115 743 49 629 q 296 920 182 856 q 546 983 410 983 q 797 920 684 983 q 976 743 909 856 q 1042 488 1042 629 q 987 252 1042 359 q 838 79 932 146 l 1060 -171 l 818 -171 l 671 5 q 551 -9 612 -9 q 546 -9 549 -9 q 296 54 410 -9 q 115 231 182 118 q 49 488 49 345 m 249 488 q 286 316 249 390 q 391 203 323 243 q 546 164 458 164 q 700 203 633 164 q 804 316 766 243 q 842 488 842 390 q 804 657 842 585 q 700 769 766 730 q 546 808 633 808 q 391 769 458 808 q 286 657 323 730 q 249 488 249 585 z "},"R":{"ha":890,"x_min":96,"x_max":821,"o":"m 96 0 l 96 970 l 460 970 q 651 930 572 970 q 770 823 730 890 q 810 672 810 755 q 754 499 810 576 q 589 393 699 422 l 821 0 l 596 0 l 382 378 l 290 378 l 290 0 l 96 0 m 290 524 l 453 524 q 571 562 532 524 q 610 668 610 600 q 571 771 610 734 q 453 808 532 808 l 290 808 l 290 524 z "},"S":{"ha":846,"x_min":71,"x_max":774,"o":"m 71 279 l 279 279 q 321 185 283 220 q 427 150 359 150 q 533 182 494 150 q 572 268 572 215 q 546 339 572 311 q 480 383 519 367 q 371 418 440 399 q 217 473 277 446 q 116 555 158 500 q 74 701 74 610 q 117 851 74 787 q 238 949 160 916 q 415 983 315 983 q 659 910 565 983 q 762 707 753 838 l 549 707 q 506 789 546 757 q 401 822 467 822 q 311 793 345 822 q 277 708 277 764 q 302 644 277 669 q 366 602 328 618 q 473 566 404 586 q 628 510 568 538 q 731 427 688 482 q 774 281 774 371 q 733 136 774 203 q 615 30 693 69 q 431 -9 538 -9 q 248 25 329 -9 q 119 125 167 60 q 71 279 72 191 z "},"T":{"ha":801,"x_min":45,"x_max":755,"o":"m 45 812 l 45 970 l 755 970 l 755 812 l 497 812 l 497 0 l 302 0 l 302 812 l 45 812 z "},"U":{"ha":968,"x_min":93,"x_max":876,"o":"m 93 371 l 93 970 l 288 970 l 288 370 q 339 219 288 271 q 484 167 390 167 q 629 219 578 167 q 681 370 681 271 l 681 970 l 876 970 l 876 371 q 823 162 876 248 q 680 34 770 77 q 481 -9 590 -9 q 284 34 372 -9 q 144 162 196 77 q 93 371 93 248 z "},"V":{"ha":987,"x_min":20,"x_max":966,"o":"m 20 970 l 228 970 l 494 199 l 760 970 l 966 970 l 611 0 l 375 0 l 20 970 z "},"W":{"ha":1422,"x_min":31,"x_max":1392,"o":"m 31 970 l 239 970 l 410 216 l 607 970 l 823 970 l 1010 221 l 1182 970 l 1392 970 l 1121 0 l 892 0 l 710 690 l 519 0 l 292 -1 l 31 970 z "},"X":{"ha":952,"x_min":53,"x_max":900,"o":"m 53 970 l 277 970 l 486 644 l 675 970 l 895 970 l 590 482 l 900 0 l 676 0 l 467 326 l 277 0 l 57 0 l 363 489 l 53 970 z "},"Y":{"ha":883,"x_min":16,"x_max":867,"o":"m 16 970 l 235 970 l 443 526 l 650 970 l 867 970 l 539 338 l 539 0 l 345 0 l 345 338 l 16 970 z "},"Z":{"ha":800,"x_min":69,"x_max":730,"o":"m 69 0 l 69 150 l 503 806 l 69 806 l 69 970 l 730 970 l 730 819 l 294 164 l 730 164 l 730 0 l 69 0 z "},"[":{"ha":690,"x_min":187,"x_max":536,"o":"m 187 -273 l 187 1283 l 536 1283 l 536 1125 l 371 1125 l 371 -113 l 536 -113 l 536 -273 l 187 -273 z "},"\\":{"ha":1050,"x_min":240,"x_max":827,"o":"m 240 1315 l 429 1315 l 827 -252 l 636 -252 l 240 1315 z "},"]":{"ha":688,"x_min":153,"x_max":501,"o":"m 153 -113 l 318 -113 l 318 1125 l 153 1125 l 153 1283 l 501 1283 l 501 -273 l 153 -273 l 153 -113 z "},"^":{"ha":944,"x_min":46,"x_max":899,"o":"m 46 232 l 379 972 l 566 972 l 899 232 l 699 232 l 473 742 l 244 232 l 46 232 z "},"_":{"ha":1097,"x_min":149,"x_max":964,"o":"m 149 -56 l 964 -56 l 964 -240 l 149 -240 l 149 -56 z "},"`":{"ha":376,"x_min":14,"x_max":334,"o":"m 14 970 l 14 1128 l 334 962 l 334 823 l 14 970 z "},"a":{"ha":941,"x_min":46,"x_max":847,"o":"m 46 387 q 93 594 46 504 q 219 733 139 685 q 397 782 298 782 q 548 747 484 782 q 652 660 612 713 l 652 770 l 847 770 l 847 0 l 652 0 l 652 113 q 548 23 614 58 q 396 -12 482 -12 q 219 38 299 -12 q 93 178 139 87 q 46 387 46 269 m 244 387 q 273 266 244 318 q 348 186 301 214 q 447 158 395 158 q 549 185 501 158 q 624 263 596 212 q 652 385 652 314 q 624 506 652 456 q 549 584 596 557 q 447 611 501 611 q 347 585 393 611 q 273 508 301 558 q 244 387 244 457 z "},"b":{"ha":941,"x_min":96,"x_max":896,"o":"m 96 0 l 96 1028 l 290 1028 l 290 657 q 394 747 328 713 q 545 782 460 782 q 723 733 643 782 q 849 595 803 685 q 896 387 896 505 q 849 178 896 269 q 723 38 803 87 q 545 -12 643 -12 q 394 22 458 -12 q 290 110 329 56 l 290 0 l 96 0 m 290 385 q 319 264 290 315 q 394 185 347 212 q 493 158 440 158 q 594 186 547 158 q 669 265 640 214 q 697 387 697 317 q 669 508 697 457 q 594 585 640 558 q 493 611 547 611 q 394 584 440 611 q 319 506 347 557 q 290 385 290 454 z "},"c":{"ha":836,"x_min":46,"x_max":789,"o":"m 46 385 q 95 594 46 504 q 229 733 143 684 q 427 782 315 782 q 663 710 570 782 q 789 510 757 639 l 579 510 q 523 588 562 560 q 425 616 484 616 q 293 556 342 616 q 244 385 244 496 q 293 214 244 275 q 425 154 342 154 q 579 260 543 154 l 789 260 q 663 61 757 135 q 427 -12 568 -12 q 229 37 315 -12 q 95 176 143 86 q 46 385 46 265 z "},"d":{"ha":941,"x_min":46,"x_max":847,"o":"m 46 387 q 93 594 46 504 q 219 733 139 685 q 399 782 300 782 q 542 749 474 782 q 650 663 610 717 l 650 1028 l 847 1028 l 847 0 l 650 0 l 650 114 q 549 22 614 57 q 397 -12 484 -12 q 220 38 300 -12 q 93 178 139 87 q 46 387 46 269 m 244 387 q 273 266 244 318 q 348 186 301 214 q 447 158 395 158 q 549 185 501 158 q 624 263 596 212 q 652 385 652 314 q 624 506 652 456 q 549 584 596 557 q 447 611 501 611 q 347 585 393 611 q 273 508 301 558 q 244 387 244 457 z "},"e":{"ha":857,"x_min":46,"x_max":811,"o":"m 46 385 q 95 594 46 504 q 231 733 143 685 q 432 782 318 782 q 629 735 542 782 q 763 601 715 688 q 811 401 811 514 q 806 326 811 359 l 243 326 q 301 196 250 243 q 428 149 353 149 q 582 241 536 149 l 791 241 q 664 59 758 130 q 432 -12 570 -12 q 233 37 321 -12 q 95 176 144 86 q 46 385 46 267 m 244 457 l 610 457 q 555 577 608 532 q 427 623 503 623 q 305 578 355 623 q 244 457 256 534 z "},"f":{"ha":479,"x_min":29,"x_max":449,"o":"m 29 610 l 29 770 l 117 770 l 117 808 q 197 1017 117 950 q 422 1079 273 1079 q 440 1079 431 1079 l 440 916 q 433 916 437 916 q 342 892 368 916 q 314 802 314 867 l 314 770 l 449 770 l 449 610 l 314 610 l 314 0 l 117 0 l 117 610 l 29 610 z "},"g":{"ha":941,"x_min":46,"x_max":847,"o":"m 46 387 q 93 594 46 504 q 219 733 139 685 q 397 782 298 782 q 549 748 484 782 q 652 660 614 714 l 652 770 l 847 770 l 847 -5 q 804 -197 847 -113 q 675 -330 761 -281 q 467 -379 589 -379 q 198 -303 302 -379 q 79 -94 93 -227 l 272 -94 q 338 -178 288 -147 q 461 -210 389 -210 q 599 -159 546 -210 q 652 -5 652 -109 l 652 114 q 548 24 614 60 q 397 -12 482 -12 q 220 38 300 -12 q 93 178 139 87 q 46 387 46 269 m 244 387 q 273 266 244 318 q 348 186 301 214 q 447 158 395 158 q 549 185 501 158 q 624 263 596 212 q 652 385 652 314 q 624 506 652 456 q 549 584 596 557 q 447 611 501 611 q 347 585 393 611 q 273 508 301 558 q 244 387 244 457 z "},"h":{"ha":918,"x_min":96,"x_max":829,"o":"m 96 0 l 96 1028 l 290 1028 l 290 673 q 390 752 328 724 q 529 781 453 781 q 685 742 616 781 q 791 630 753 704 q 829 452 829 555 l 829 0 l 635 0 l 635 425 q 589 566 635 517 q 464 615 543 615 q 337 566 383 615 q 290 425 290 517 l 290 0 l 96 0 z "},"i":{"ha":386,"x_min":75,"x_max":314,"o":"m 75 975 q 109 1057 75 1024 q 195 1089 143 1089 q 280 1056 246 1089 q 314 975 314 1023 q 280 894 314 926 q 195 861 245 861 q 109 894 143 861 q 75 975 75 926 m 96 0 l 96 770 l 290 770 l 290 0 l 96 0 z "},"j":{"ha":386,"x_min":-40,"x_max":313,"o":"m -40 -201 l 16 -201 q 78 -184 60 -201 q 96 -127 96 -167 l 96 770 l 290 770 l 290 -126 q 227 -310 290 -254 q 46 -367 164 -367 l -40 -367 l -40 -201 m 74 975 q 108 1057 74 1024 q 195 1089 142 1089 q 279 1056 246 1089 q 313 975 313 1023 q 279 894 313 926 q 195 861 245 861 q 108 894 142 861 q 74 975 74 926 z "},"k":{"ha":811,"x_min":96,"x_max":804,"o":"m 96 0 l 96 1028 l 290 1028 l 290 443 l 549 770 l 802 770 l 463 383 l 804 0 l 551 0 l 290 328 l 290 0 l 96 0 z "},"l":{"ha":386,"x_min":96,"x_max":290,"o":"m 96 0 l 96 1028 l 290 1028 l 290 0 l 96 0 z "},"m":{"ha":1455,"x_min":96,"x_max":1367,"o":"m 96 0 l 96 770 l 290 770 l 290 676 q 387 753 328 725 q 517 781 446 781 q 678 742 607 781 q 787 633 749 704 q 896 740 825 700 q 1051 781 968 781 q 1280 694 1193 781 q 1367 452 1367 607 l 1367 0 l 1173 0 l 1173 425 q 1126 563 1173 515 q 1002 611 1080 611 q 876 563 922 611 q 829 425 829 515 l 829 0 l 635 0 l 635 425 q 589 563 635 515 q 464 611 543 611 q 337 563 383 611 q 290 425 290 515 l 290 0 l 96 0 z "},"n":{"ha":918,"x_min":96,"x_max":829,"o":"m 96 0 l 96 770 l 290 770 l 290 673 q 390 752 329 724 q 522 781 450 781 q 745 694 660 781 q 829 452 829 607 l 829 0 l 635 0 l 635 425 q 589 566 635 517 q 464 615 543 615 q 337 566 383 615 q 290 425 290 517 l 290 0 l 96 0 z "},"o":{"ha":886,"x_min":47,"x_max":839,"o":"m 47 385 q 99 593 47 503 q 241 733 151 684 q 443 782 332 782 q 644 733 554 782 q 787 593 734 684 q 839 385 839 503 q 785 176 839 267 q 641 37 732 86 q 437 -12 550 -12 q 237 37 326 -12 q 98 176 149 86 q 47 385 47 267 m 244 385 q 299 216 244 275 q 437 157 354 157 q 537 182 490 157 q 611 260 583 208 q 639 385 639 311 q 581 553 639 494 q 440 612 524 612 q 300 553 357 612 q 244 385 244 494 z "},"p":{"ha":941,"x_min":96,"x_max":896,"o":"m 96 -367 l 96 770 l 290 770 l 290 659 q 394 747 328 711 q 545 782 460 782 q 723 733 643 782 q 849 595 803 685 q 896 387 896 505 q 849 178 896 269 q 723 38 803 87 q 545 -12 643 -12 q 395 22 460 -12 q 290 110 330 57 l 290 -367 l 96 -367 m 290 385 q 319 264 290 315 q 394 185 347 212 q 493 158 440 158 q 594 186 547 158 q 669 265 640 214 q 697 387 697 317 q 669 508 697 457 q 594 585 640 558 q 493 611 547 611 q 394 584 440 611 q 319 506 347 557 q 290 385 290 454 z "},"q":{"ha":941,"x_min":46,"x_max":847,"o":"m 46 386 q 94 591 46 501 q 224 731 142 681 q 404 781 306 781 q 549 749 486 781 q 652 669 612 718 l 652 770 l 847 770 l 847 -367 l 652 -367 l 652 106 q 548 22 613 56 q 400 -11 482 -11 q 222 40 303 -11 q 93 180 140 90 q 46 386 46 271 m 244 386 q 273 263 244 315 q 349 184 302 211 q 447 158 396 158 q 546 184 500 158 q 622 262 593 211 q 652 385 652 314 q 622 507 652 456 q 546 585 593 558 q 447 611 500 611 q 349 585 395 611 q 273 508 302 558 q 244 386 244 457 z "},"r":{"ha":561,"x_min":96,"x_max":526,"o":"m 96 0 l 96 770 l 290 770 l 290 650 q 388 746 328 711 q 526 781 449 781 l 526 576 l 475 576 q 337 533 383 576 q 290 383 290 490 l 290 0 l 96 0 z "},"s":{"ha":757,"x_min":54,"x_max":693,"o":"m 54 243 l 250 243 q 294 169 256 198 q 389 140 332 140 q 476 162 444 140 q 507 220 507 184 q 469 276 507 257 q 347 317 431 294 q 206 360 261 338 q 112 428 151 382 q 72 551 72 473 q 109 668 72 615 q 215 751 146 721 q 376 782 283 782 q 596 713 514 782 q 686 528 677 644 l 500 528 q 462 601 496 574 q 371 628 428 628 q 290 608 318 628 q 261 554 261 589 q 300 495 261 515 q 421 454 339 475 q 558 411 505 433 q 652 342 612 389 q 693 220 692 296 q 656 100 693 153 q 551 18 619 47 q 390 -12 482 -12 q 221 22 296 -12 q 102 114 146 56 q 54 243 58 172 z "},"t":{"ha":538,"x_min":35,"x_max":494,"o":"m 35 610 l 35 770 l 126 770 l 126 960 l 322 960 l 322 770 l 494 770 l 494 610 l 322 610 l 322 237 q 341 181 322 199 q 404 164 359 164 l 494 164 l 494 0 l 372 0 q 126 239 127 0 l 126 610 l 35 610 z "},"u":{"ha":918,"x_min":89,"x_max":822,"o":"m 89 318 l 89 770 l 283 770 l 283 346 q 329 205 283 254 q 454 155 375 155 q 581 205 535 155 q 627 346 627 254 l 627 770 l 822 770 l 822 0 l 627 0 l 627 97 q 529 19 589 47 q 397 -9 468 -9 q 238 28 307 -9 q 129 141 168 66 q 89 318 89 215 z "},"v":{"ha":831,"x_min":14,"x_max":818,"o":"m 14 770 l 222 770 l 416 179 l 611 770 l 818 770 l 533 0 l 297 0 l 14 770 z "},"w":{"ha":1172,"x_min":9,"x_max":1162,"o":"m 9 770 l 207 770 l 343 183 l 490 770 l 696 770 l 840 184 l 977 770 l 1162 770 l 937 0 l 728 0 l 587 538 l 447 0 l 236 0 l 9 770 z "},"x":{"ha":749,"x_min":11,"x_max":741,"o":"m 11 770 l 231 770 l 387 532 l 529 770 l 737 770 l 485 386 l 741 0 l 521 0 l 363 239 l 222 0 l 14 0 l 265 386 l 11 770 z "},"y":{"ha":840,"x_min":7,"x_max":832,"o":"m 7 770 l 225 770 l 424 232 l 625 770 l 832 770 l 355 -364 l 149 -364 l 315 20 l 7 770 z "},"z":{"ha":671,"x_min":53,"x_max":616,"o":"m 53 0 l 53 157 l 389 610 l 54 610 l 54 770 l 612 770 l 612 612 l 273 160 l 616 160 l 616 0 l 53 0 z "},"{":{"ha":705,"x_min":153,"x_max":593,"o":"m 153 429 l 153 581 q 253 616 219 586 q 288 699 288 647 q 275 867 288 757 q 261 1057 262 998 q 326 1226 261 1166 q 497 1286 390 1286 l 593 1286 l 593 1122 l 534 1122 q 449 1040 448 1122 q 460 885 449 1002 q 467 807 461 871 q 472 692 472 742 q 436 569 472 618 q 326 507 400 521 l 326 504 q 436 441 400 488 q 472 318 472 393 q 467 206 472 271 q 460 125 461 142 q 449 -29 449 8 q 470 -92 449 -72 q 534 -111 490 -111 l 593 -111 l 593 -277 l 497 -277 q 326 -216 390 -277 q 261 -47 261 -155 q 275 144 261 14 q 288 311 288 254 q 254 393 288 363 q 153 429 220 424 z "},"|":{"ha":429,"x_min":117,"x_max":313,"o":"m 117 -168 l 117 1122 l 313 1122 l 313 -168 l 117 -168 z "},"}":{"ha":705,"x_min":113,"x_max":553,"o":"m 113 -111 l 171 -111 q 236 -92 216 -111 q 257 -29 257 -72 q 245 125 257 8 q 239 206 244 142 q 233 318 233 271 q 270 441 233 393 q 379 504 306 489 l 379 507 q 269 569 305 521 q 233 692 233 618 q 239 806 233 742 q 245 885 244 871 q 257 1040 256 1002 q 171 1122 257 1122 l 113 1122 l 113 1286 l 208 1286 q 380 1225 315 1286 q 444 1057 444 1165 q 431 867 444 998 q 418 699 418 757 q 452 616 418 647 q 553 581 486 586 l 553 429 q 452 393 486 424 q 418 311 418 363 q 431 144 418 254 q 444 -47 444 14 q 380 -216 444 -156 q 208 -277 315 -277 l 113 -277 l 113 -111 z "},"~":{"ha":822,"x_min":45,"x_max":778,"o":"m 45 311 q 132 510 68 446 q 292 574 196 574 q 367 561 333 574 q 440 522 401 547 q 495 493 472 503 q 543 484 518 484 q 604 506 579 484 q 633 572 628 528 l 778 572 q 690 374 754 437 q 529 310 625 310 q 455 323 488 310 q 382 361 422 336 q 326 390 347 380 q 279 400 304 400 q 218 377 243 400 q 186 311 193 354 l 45 311 z "}," ":{"ha":330,"x_min":0,"x_max":0,"o":""},"¡":{"ha":491,"x_min":126,"x_max":366,"o":"m 126 676 q 160 758 126 725 q 248 790 195 790 q 332 758 298 790 q 366 676 366 725 q 332 595 366 627 q 248 562 298 562 q 160 595 195 562 q 126 676 126 628 m 138 -205 l 161 465 l 325 465 l 347 -205 l 138 -205 z "},"¢":{"ha":920,"x_min":77,"x_max":783,"o":"m 77 358 q 161 607 77 508 q 400 720 245 705 l 400 838 l 489 838 l 489 720 q 692 639 611 709 q 783 464 774 570 l 603 464 q 447 562 571 562 q 311 508 361 562 q 261 358 261 454 q 311 208 261 262 q 447 154 361 154 q 549 180 510 154 q 603 253 589 205 l 783 253 q 692 78 774 147 q 489 -3 611 8 l 489 -121 l 400 -121 l 400 -3 q 161 110 246 11 q 77 358 77 208 z "},"£":{"ha":908,"x_min":54,"x_max":794,"o":"m 54 410 l 54 543 l 170 543 q 142 714 142 637 q 183 877 142 808 q 297 982 224 946 q 467 1018 371 1018 q 702 932 621 1018 q 787 714 783 847 l 608 714 q 574 819 607 781 q 469 857 541 857 q 366 818 404 857 q 328 699 328 779 q 335 627 328 663 q 358 543 343 591 l 619 543 l 619 410 l 393 410 q 396 376 396 387 q 373 258 396 317 q 302 151 350 199 l 794 151 l 794 -4 l 121 -4 l 90 96 q 182 220 153 157 q 211 378 211 283 q 208 410 211 387 l 54 410 z "},"¤":{"ha":779,"x_min":83,"x_max":696,"o":"m 83 300 l 163 379 q 119 524 120 439 q 164 671 119 608 l 83 751 l 164 832 l 253 743 q 390 772 311 772 q 528 743 469 772 l 616 832 l 696 751 l 618 672 q 664 524 664 611 q 618 378 664 441 l 696 300 l 616 220 l 529 306 q 389 275 465 275 q 250 306 311 275 l 164 220 l 83 300 m 275 524 q 308 426 275 460 q 389 392 340 392 q 471 427 437 392 q 505 524 505 461 q 472 622 505 587 q 390 657 439 657 q 308 622 341 657 q 275 524 275 587 z "},"¥":{"ha":883,"x_min":16,"x_max":867,"o":"m 16 970 l 235 970 l 441 517 l 647 970 l 867 970 l 659 568 l 817 568 l 817 433 l 587 431 l 539 338 l 539 325 l 817 325 l 817 191 l 539 191 l 539 0 l 345 0 l 345 191 l 66 191 l 66 325 l 345 325 l 345 338 l 296 432 l 66 433 l 66 568 l 225 568 l 16 970 z "},"¦":{"ha":486,"x_min":146,"x_max":340,"o":"m 146 -168 l 146 386 l 340 386 l 340 -168 l 146 -168 m 146 568 l 146 1122 l 340 1122 l 340 568 l 146 568 z "},"§":{"ha":808,"x_min":50,"x_max":758,"o":"m 50 339 q 89 467 50 411 q 208 554 127 522 q 97 742 97 629 q 134 863 97 808 q 241 949 171 917 q 406 981 311 981 q 622 915 541 981 q 707 736 704 848 l 513 736 q 483 817 510 789 q 404 844 456 844 q 322 822 351 844 q 293 755 293 799 q 312 702 293 725 q 376 656 330 679 q 509 599 421 633 q 696 488 635 549 q 758 339 758 428 q 600 123 758 193 q 711 -64 711 49 q 674 -184 711 -130 q 567 -271 637 -239 q 403 -302 497 -302 q 186 -237 268 -302 q 102 -58 104 -171 l 296 -58 q 404 -167 304 -167 q 486 -144 457 -167 q 515 -78 515 -121 q 497 -24 515 -47 q 433 22 478 -1 q 300 79 387 45 q 112 190 174 130 q 50 339 50 250 m 254 339 q 296 248 254 285 q 406 211 338 211 q 514 248 473 211 q 555 339 555 285 q 514 430 555 393 q 404 467 472 467 q 295 430 336 467 q 254 339 254 393 z "},"¨":{"ha":469,"x_min":14,"x_max":456,"o":"m 14 953 q 40 1019 14 991 q 106 1046 66 1046 q 172 1019 144 1046 q 199 953 199 991 q 172 888 199 914 q 106 861 144 861 q 40 888 66 861 q 14 953 14 914 m 271 953 q 297 1019 271 991 q 363 1046 323 1046 q 429 1019 401 1046 q 456 953 456 991 q 429 888 456 914 q 363 861 401 861 q 297 888 323 861 q 271 953 271 914 z "},"©":{"ha":1090,"x_min":58,"x_max":1032,"o":"m 58 486 q 120 744 58 631 q 292 920 182 857 q 546 983 403 983 q 798 920 688 983 q 970 744 908 857 q 1032 486 1032 631 q 970 229 1032 342 q 798 52 908 115 q 546 -11 688 -11 q 292 52 403 -11 q 120 229 182 115 q 58 486 58 342 m 135 486 q 185 262 135 359 q 328 112 235 165 q 546 58 421 58 q 763 112 669 58 q 906 262 856 165 q 956 486 956 358 q 906 712 956 615 q 763 861 856 808 q 546 913 671 913 q 328 861 421 913 q 185 712 235 808 q 135 486 135 615 m 239 488 q 278 321 239 393 q 388 210 318 249 q 545 171 457 171 q 729 230 652 171 q 831 386 807 289 l 660 386 q 616 327 644 347 q 541 306 587 306 q 440 352 477 306 q 403 488 403 399 q 439 622 403 576 q 541 668 476 668 q 616 647 585 668 q 660 587 647 627 l 831 587 q 730 745 807 687 q 545 803 653 803 q 388 764 457 803 q 278 653 318 725 q 239 488 239 582 z "},"ª":{"ha":642,"x_min":39,"x_max":591,"o":"m 39 736 q 70 867 39 810 q 154 955 102 924 q 271 986 207 986 q 441 914 385 986 l 441 978 l 591 978 l 591 490 l 441 490 l 441 553 q 374 502 416 521 q 275 484 332 484 q 156 515 210 484 q 70 605 102 547 q 39 736 39 663 m 193 734 q 230 636 193 672 q 318 600 267 600 q 406 636 370 600 q 441 734 441 672 q 406 833 441 797 q 318 869 370 869 q 230 833 267 869 q 193 734 193 798 z "},"«":{"ha":724,"x_min":62,"x_max":657,"o":"m 62 410 l 184 653 l 370 653 l 241 410 l 370 167 l 184 167 l 62 410 m 350 410 l 473 653 l 657 653 l 529 410 l 657 167 l 473 167 l 350 410 z "},"¬":{"ha":945,"x_min":57,"x_max":876,"o":"m 57 458 l 57 608 l 876 608 l 876 271 l 682 271 l 682 458 l 57 458 z "},"­":{"ha":809,"x_min":98,"x_max":688,"o":"m 98 414 l 98 578 l 688 578 l 688 414 l 98 414 z "},"®":{"ha":716,"x_min":62,"x_max":653,"o":"m 62 689 q 101 842 62 775 q 206 947 139 909 q 358 985 273 985 q 510 947 443 985 q 615 842 578 909 q 653 689 653 775 q 615 537 653 604 q 510 433 578 471 q 358 395 443 395 q 206 433 273 395 q 101 537 139 471 q 62 689 62 604 m 139 689 q 199 526 139 587 q 358 465 258 465 q 519 527 458 465 q 579 689 579 589 q 519 852 579 791 q 358 914 458 914 q 199 852 258 914 q 139 689 139 790 m 236 545 l 236 842 l 382 842 q 460 814 431 842 q 489 745 489 787 q 474 692 489 714 q 433 659 460 669 l 505 545 l 397 545 l 338 648 l 329 648 l 329 545 l 236 545 m 328 718 l 372 718 q 389 724 382 718 q 396 741 396 729 q 372 761 396 762 l 328 761 l 328 718 z "},"¯":{"ha":558,"x_min":14,"x_max":545,"o":"m 14 878 l 14 1017 l 545 1017 l 545 878 l 14 878 z "},"°":{"ha":616,"x_min":37,"x_max":579,"o":"m 37 732 q 113 912 37 846 q 310 979 189 979 q 504 912 429 979 q 579 732 579 844 q 504 550 579 618 q 307 482 428 482 q 113 550 188 482 q 37 732 37 618 m 189 730 q 223 628 189 664 q 307 591 257 591 q 391 628 356 591 q 427 730 427 664 q 392 836 427 799 q 307 872 357 872 q 224 836 258 872 q 189 730 189 799 z "},"±":{"ha":939,"x_min":115,"x_max":823,"o":"m 115 165 l 115 335 l 378 335 l 378 507 l 115 507 l 115 676 l 378 676 l 378 865 l 562 865 l 562 676 l 823 676 l 823 507 l 562 507 l 562 335 l 823 335 l 823 165 l 115 165 z "},"²":{"ha":500,"x_min":41,"x_max":449,"o":"m 41 828 q 101 944 45 900 q 253 989 157 989 q 358 967 314 989 q 426 909 403 945 q 449 833 449 873 q 415 745 449 783 q 302 661 382 707 l 207 607 l 446 607 l 446 489 l 47 489 l 47 600 l 205 707 q 270 764 248 736 q 292 823 292 793 q 278 864 292 848 q 241 879 264 879 q 192 828 199 879 l 41 828 z "},"³":{"ha":496,"x_min":24,"x_max":456,"o":"m 24 643 l 174 643 q 236 590 182 590 q 279 605 262 590 q 296 644 296 619 q 278 684 296 669 q 229 699 260 699 l 180 699 l 180 778 l 224 778 q 289 831 289 778 q 274 867 289 854 q 232 880 258 880 q 172 835 180 880 l 31 835 q 90 946 33 903 q 245 989 146 989 q 391 947 333 989 q 449 843 449 905 q 425 774 449 802 q 359 737 401 747 l 359 733 q 430 692 404 721 q 456 621 456 663 q 396 521 456 559 q 243 482 336 482 q 84 525 140 482 q 24 643 28 568 z "},"´":{"ha":347,"x_min":14,"x_max":334,"o":"m 14 823 l 14 962 l 334 1128 l 334 970 l 14 823 z "},"µ":{"ha":941,"x_min":104,"x_max":838,"o":"m 104 -367 l 104 770 l 297 770 l 297 346 q 343 207 297 256 q 469 158 390 158 q 595 207 549 158 q 642 346 642 256 l 642 770 l 838 770 l 838 0 l 642 0 l 642 118 q 544 24 606 57 q 401 -9 482 -9 q 297 17 340 -9 l 297 -367 l 104 -367 z "},"¶":{"ha":924,"x_min":45,"x_max":821,"o":"m 45 677 q 80 824 45 758 q 189 930 115 890 q 374 970 262 970 l 821 970 l 821 0 l 656 0 l 656 819 l 566 819 l 566 0 l 399 0 l 399 386 l 374 386 q 127 469 210 386 q 45 677 45 551 z "},"·":{"ha":374,"x_min":71,"x_max":309,"o":"m 71 453 q 104 534 71 502 q 191 567 138 567 q 276 534 243 567 q 309 453 309 501 q 276 372 309 404 q 191 339 243 339 q 104 372 138 339 q 71 453 71 404 z "},"¸":{"ha":410,"x_min":14,"x_max":396,"o":"m 14 -253 l 179 -253 q 230 -243 212 -253 q 248 -208 248 -233 q 230 -174 248 -183 q 179 -165 212 -165 l 93 -165 l 93 9 l 215 9 l 215 -60 q 344 -99 292 -60 q 396 -211 396 -138 q 342 -327 396 -286 q 211 -367 289 -367 l 14 -367 l 14 -253 z "},"¹":{"ha":316,"x_min":28,"x_max":256,"o":"m 28 864 l 28 978 l 256 978 l 256 489 l 107 489 l 107 864 l 28 864 z "},"º":{"ha":625,"x_min":39,"x_max":586,"o":"m 39 733 q 74 865 39 808 q 172 954 110 922 q 313 985 233 985 q 454 954 392 985 q 551 865 517 922 q 586 733 586 808 q 551 603 586 659 q 453 514 515 546 q 311 482 390 482 q 170 514 232 482 q 74 603 109 546 q 39 733 39 660 m 193 732 q 227 634 193 669 q 311 599 261 599 q 397 634 361 599 q 433 732 433 669 q 398 833 433 798 q 311 869 363 869 q 227 833 261 869 q 193 732 193 798 z "},"»":{"ha":724,"x_min":69,"x_max":664,"o":"m 69 167 l 196 410 l 69 653 l 253 653 l 376 410 l 253 167 l 69 167 m 357 167 l 485 410 l 357 653 l 541 653 l 664 410 l 541 167 l 357 167 z "},"¼":{"ha":1014,"x_min":52,"x_max":965,"o":"m 52 864 l 52 978 l 279 978 l 279 489 l 131 489 l 131 864 l 52 864 m 104 0 l 637 971 l 822 971 l 290 0 l 104 0 m 493 90 l 493 171 l 700 490 l 907 490 l 907 179 l 965 179 l 965 90 l 907 90 l 907 0 l 757 0 l 757 90 l 493 90 m 639 180 l 762 180 l 762 383 l 639 180 z "},"½":{"ha":1051,"x_min":52,"x_max":979,"o":"m 52 864 l 52 978 l 279 978 l 279 489 l 131 489 l 131 864 l 52 864 m 104 0 l 628 972 l 815 972 l 290 0 l 104 0 m 572 338 q 632 454 576 410 q 783 498 688 498 q 889 476 844 498 q 956 419 933 454 q 979 343 979 383 q 946 255 979 293 q 833 171 913 216 l 737 117 l 977 117 l 977 -1 l 578 -1 l 578 110 l 736 216 q 800 274 779 245 q 822 334 822 302 q 808 374 822 359 q 772 389 794 389 q 722 338 730 389 l 572 338 z "},"¾":{"ha":1126,"x_min":57,"x_max":1095,"o":"m 57 643 l 207 643 q 269 590 215 590 q 312 605 296 590 q 329 644 329 619 q 311 684 329 669 q 262 699 293 699 l 214 699 l 214 778 l 257 778 q 322 831 322 778 q 307 867 322 854 q 265 880 292 880 q 205 835 214 880 l 64 835 q 123 946 66 903 q 279 989 179 989 q 425 947 367 989 q 482 843 482 905 q 458 774 482 802 q 393 737 435 747 l 393 733 q 464 692 438 721 q 489 621 489 663 q 429 521 489 559 q 277 482 370 482 q 117 525 174 482 q 57 643 61 568 m 235 0 l 782 972 l 968 972 l 421 0 l 235 0 m 623 90 l 623 171 l 821 490 l 1035 490 l 1035 179 l 1095 179 l 1095 90 l 1035 90 l 1035 0 l 886 0 l 886 90 l 623 90 m 766 179 l 892 179 l 892 390 l 766 179 z "},"¿":{"ha":747,"x_min":60,"x_max":700,"o":"m 60 68 q 147 276 60 204 q 379 347 235 347 l 385 454 l 555 454 l 562 218 l 500 218 q 313 186 378 218 q 249 66 248 154 q 284 -29 249 5 q 380 -64 319 -64 q 480 -29 444 -64 q 515 66 515 5 l 699 66 q 663 -85 700 -18 q 552 -189 625 -151 q 380 -227 479 -227 q 148 -148 236 -227 q 60 68 60 -69 m 353 672 q 386 753 353 721 q 471 786 419 786 q 557 753 524 786 q 591 672 591 721 q 557 591 591 623 q 471 558 524 558 q 386 591 419 558 q 353 672 353 624 z "},"À":{"ha":994,"x_min":36,"x_max":960,"o":"m 36 0 l 385 971 l 611 971 l 960 0 l 754 0 l 690 184 l 304 184 l 240 0 l 36 0 m 329 1171 l 329 1329 l 649 1164 l 649 1025 l 329 1171 m 357 340 l 637 340 l 497 746 l 357 340 z "},"Á":{"ha":994,"x_min":36,"x_max":960,"o":"m 36 0 l 385 971 l 611 971 l 960 0 l 754 0 l 690 184 l 304 184 l 240 0 l 36 0 m 329 1025 l 329 1164 l 649 1329 l 649 1171 l 329 1025 m 357 340 l 637 340 l 497 746 l 357 340 z "},"Â":{"ha":994,"x_min":36,"x_max":960,"o":"m 36 0 l 385 971 l 611 971 l 960 0 l 754 0 l 690 184 l 304 184 l 240 0 l 36 0 m 292 1025 l 292 1166 l 499 1279 l 705 1166 l 705 1025 l 499 1141 l 292 1025 m 357 340 l 637 340 l 497 746 l 357 340 z "},"Ã":{"ha":994,"x_min":36,"x_max":960,"o":"m 36 0 l 385 971 l 611 971 l 960 0 l 754 0 l 690 184 l 304 184 l 240 0 l 36 0 m 247 1044 q 305 1181 260 1136 q 419 1226 350 1226 q 471 1217 448 1226 q 521 1192 493 1208 q 590 1165 562 1165 q 650 1225 642 1165 l 754 1225 q 696 1088 742 1133 q 582 1043 651 1043 q 530 1052 553 1043 q 480 1078 508 1061 q 411 1105 440 1105 q 350 1044 359 1105 l 247 1044 m 357 340 l 637 340 l 497 746 l 357 340 z "},"Ä":{"ha":994,"x_min":36,"x_max":960,"o":"m 36 0 l 385 971 l 611 971 l 960 0 l 754 0 l 690 184 l 304 184 l 240 0 l 36 0 m 276 1154 q 302 1220 276 1193 q 368 1247 329 1247 q 434 1220 407 1247 q 461 1154 461 1193 q 434 1089 461 1116 q 368 1063 407 1063 q 302 1089 329 1063 q 276 1154 276 1116 m 357 340 l 637 340 l 497 746 l 357 340 m 533 1154 q 559 1220 533 1193 q 625 1247 586 1247 q 691 1220 664 1247 q 718 1154 718 1193 q 691 1089 718 1116 q 625 1063 664 1063 q 559 1089 586 1063 q 533 1154 533 1116 z "},"Å":{"ha":994,"x_min":36,"x_max":960,"o":"m 36 0 l 385 971 l 611 971 l 960 0 l 754 0 l 690 184 l 304 184 l 240 0 l 36 0 m 336 1197 q 383 1313 336 1269 q 498 1357 431 1357 q 614 1313 568 1357 q 661 1197 661 1270 q 614 1081 661 1125 q 498 1038 568 1038 q 383 1081 431 1038 q 336 1197 336 1125 m 357 340 l 637 340 l 497 746 l 357 340 m 432 1197 q 451 1148 432 1168 q 498 1128 471 1128 q 546 1148 526 1128 q 565 1197 565 1168 q 546 1248 565 1230 q 498 1267 526 1267 q 451 1248 471 1267 q 432 1197 432 1230 z "},"Æ":{"ha":1301,"x_min":12,"x_max":1221,"o":"m 12 0 l 529 971 l 1221 971 l 1221 818 l 857 818 l 857 568 l 1179 568 l 1179 418 l 857 418 l 857 154 l 1221 154 l 1221 0 l 661 0 l 661 182 l 321 182 l 225 0 l 12 0 m 400 332 l 661 332 l 661 829 l 400 332 z "},"Ç":{"ha":1066,"x_min":49,"x_max":996,"o":"m 49 486 q 113 743 49 629 q 290 919 178 856 q 541 982 401 982 q 825 899 703 982 q 996 668 947 815 l 772 668 q 679 772 739 737 q 539 807 618 807 q 388 767 454 807 q 286 655 322 728 q 249 486 249 583 q 286 317 249 391 q 388 205 322 244 q 539 165 454 165 q 679 201 618 165 q 772 306 739 236 l 996 306 q 848 91 953 172 q 602 -5 743 9 l 602 -62 q 730 -101 678 -62 q 782 -214 782 -140 q 728 -329 782 -289 q 597 -370 675 -370 l 400 -370 l 400 -256 l 566 -256 q 616 -246 599 -256 q 633 -211 633 -236 q 616 -177 633 -186 q 566 -168 599 -168 l 479 -168 l 479 -5 q 258 74 356 8 q 104 247 160 140 q 49 486 49 354 z "},"È":{"ha":739,"x_min":96,"x_max":659,"o":"m 96 0 l 96 971 l 659 971 l 659 812 l 290 812 l 290 570 l 616 570 l 616 415 l 290 415 l 290 158 l 659 158 l 659 0 l 96 0 m 203 1171 l 203 1329 l 523 1164 l 523 1025 l 203 1171 z "},"É":{"ha":739,"x_min":96,"x_max":659,"o":"m 96 0 l 96 971 l 659 971 l 659 812 l 290 812 l 290 570 l 616 570 l 616 415 l 290 415 l 290 158 l 659 158 l 659 0 l 96 0 m 203 1025 l 203 1164 l 523 1329 l 523 1171 l 203 1025 z "},"Ê":{"ha":739,"x_min":96,"x_max":659,"o":"m 96 0 l 96 971 l 659 971 l 659 812 l 290 812 l 290 570 l 616 570 l 616 415 l 290 415 l 290 158 l 659 158 l 659 0 l 96 0 m 163 1025 l 163 1166 l 371 1279 l 576 1166 l 576 1025 l 371 1141 l 163 1025 z "},"Ë":{"ha":739,"x_min":96,"x_max":659,"o":"m 96 0 l 96 971 l 659 971 l 659 812 l 290 812 l 290 570 l 616 570 l 616 415 l 290 415 l 290 158 l 659 158 l 659 0 l 96 0 m 150 1154 q 176 1220 150 1193 q 242 1247 203 1247 q 308 1220 281 1247 q 335 1154 335 1193 q 308 1089 335 1116 q 242 1063 281 1063 q 176 1089 203 1063 q 150 1154 150 1116 m 407 1154 q 433 1220 407 1193 q 499 1247 460 1247 q 565 1220 538 1247 q 592 1154 592 1193 q 565 1089 592 1116 q 499 1063 538 1063 q 433 1089 460 1063 q 407 1154 407 1116 z "},"Ì":{"ha":386,"x_min":24,"x_max":345,"o":"m 24 1171 l 24 1329 l 345 1164 l 345 1025 l 24 1171 m 96 0 l 96 970 l 290 970 l 290 0 l 96 0 z "},"Í":{"ha":386,"x_min":24,"x_max":345,"o":"m 24 1025 l 24 1164 l 345 1329 l 345 1171 l 24 1025 m 96 0 l 96 970 l 290 970 l 290 0 l 96 0 z "},"Î":{"ha":386,"x_min":-13,"x_max":400,"o":"m -13 1025 l -13 1166 l 195 1279 l 400 1166 l 400 1025 l 195 1141 l -13 1025 m 96 0 l 96 970 l 290 970 l 290 0 l 96 0 z "},"Ï":{"ha":386,"x_min":-28,"x_max":414,"o":"m -28 1154 q -1 1220 -28 1193 q 64 1247 25 1247 q 130 1220 103 1247 q 157 1154 157 1193 q 130 1089 157 1116 q 64 1063 103 1063 q -1 1089 25 1063 q -28 1154 -28 1116 m 96 0 l 96 970 l 290 970 l 290 0 l 96 0 m 229 1154 q 256 1220 229 1193 q 321 1247 282 1247 q 387 1220 360 1247 q 414 1154 414 1193 q 387 1089 414 1116 q 321 1063 360 1063 q 256 1089 282 1063 q 229 1154 229 1116 z "},"Ð":{"ha":1008,"x_min":9,"x_max":958,"o":"m 9 399 l 9 568 l 107 568 l 107 970 l 447 970 q 716 910 600 970 q 895 740 832 850 q 958 484 958 629 q 895 229 958 338 q 716 60 832 119 q 447 0 600 0 l 107 0 l 107 399 l 9 399 m 302 158 l 440 158 q 675 244 591 158 q 758 484 758 330 q 675 722 758 636 q 440 807 591 807 l 302 807 l 302 568 l 534 568 l 534 399 l 302 399 l 302 158 z "},"Ñ":{"ha":1021,"x_min":96,"x_max":925,"o":"m 96 0 l 96 971 l 290 971 l 730 304 l 730 971 l 925 971 l 925 0 l 730 0 l 290 665 l 290 0 l 96 0 m 261 1044 q 319 1181 274 1136 q 433 1226 364 1226 q 485 1217 463 1226 q 535 1192 507 1208 q 604 1165 576 1165 q 664 1225 656 1165 l 768 1225 q 711 1088 756 1133 q 596 1043 665 1043 q 545 1052 567 1043 q 494 1078 522 1061 q 425 1105 454 1105 q 364 1044 374 1105 l 261 1044 z "},"Ò":{"ha":1090,"x_min":49,"x_max":1042,"o":"m 49 488 q 115 743 49 629 q 296 920 182 856 q 546 983 410 983 q 797 920 684 983 q 976 743 909 856 q 1042 488 1042 629 q 976 231 1042 345 q 796 54 909 118 q 546 -9 682 -9 q 296 54 410 -9 q 115 231 182 118 q 49 488 49 345 m 249 488 q 286 317 249 391 q 391 203 323 243 q 546 164 458 164 q 700 203 633 164 q 804 316 766 243 q 842 488 842 390 q 804 657 842 585 q 700 769 766 730 q 546 808 633 808 q 391 769 458 808 q 286 657 323 730 q 249 488 249 585 m 378 1171 l 378 1329 l 698 1164 l 698 1025 l 378 1171 z "},"Ó":{"ha":1090,"x_min":49,"x_max":1042,"o":"m 49 488 q 115 743 49 629 q 296 920 182 856 q 546 983 410 983 q 797 920 684 983 q 976 743 909 856 q 1042 488 1042 629 q 976 231 1042 345 q 796 54 909 118 q 546 -9 682 -9 q 296 54 410 -9 q 115 231 182 118 q 49 488 49 345 m 249 488 q 286 317 249 391 q 391 203 323 243 q 546 164 458 164 q 700 203 633 164 q 804 316 766 243 q 842 488 842 390 q 804 657 842 585 q 700 769 766 730 q 546 808 633 808 q 391 769 458 808 q 286 657 323 730 q 249 488 249 585 m 378 1025 l 378 1164 l 698 1329 l 698 1171 l 378 1025 z "},"Ô":{"ha":1090,"x_min":49,"x_max":1042,"o":"m 49 488 q 115 743 49 629 q 296 920 182 856 q 546 983 410 983 q 797 920 684 983 q 976 743 909 856 q 1042 488 1042 629 q 976 231 1042 345 q 796 54 909 118 q 546 -9 682 -9 q 296 54 410 -9 q 115 231 182 118 q 49 488 49 345 m 249 488 q 286 317 249 391 q 391 203 323 243 q 546 164 458 164 q 700 203 633 164 q 804 316 766 243 q 842 488 842 390 q 804 657 842 585 q 700 769 766 730 q 546 808 633 808 q 391 769 458 808 q 286 657 323 730 q 249 488 249 585 m 338 1025 l 338 1166 l 546 1279 l 751 1166 l 751 1025 l 546 1141 l 338 1025 z "},"Õ":{"ha":1090,"x_min":49,"x_max":1042,"o":"m 49 488 q 115 743 49 629 q 296 920 182 856 q 546 983 410 983 q 797 920 684 983 q 976 743 909 856 q 1042 488 1042 629 q 976 231 1042 345 q 796 54 909 118 q 546 -9 682 -9 q 296 54 410 -9 q 115 231 182 118 q 49 488 49 345 m 249 488 q 286 317 249 391 q 391 203 323 243 q 546 164 458 164 q 700 203 633 164 q 804 316 766 243 q 842 488 842 390 q 804 657 842 585 q 700 769 766 730 q 546 808 633 808 q 391 769 458 808 q 286 657 323 730 q 249 488 249 585 m 296 1044 q 354 1181 309 1136 q 468 1226 399 1226 q 519 1217 497 1226 q 570 1192 542 1208 q 639 1165 611 1165 q 699 1225 690 1165 l 803 1225 q 745 1088 791 1133 q 631 1043 700 1043 q 579 1052 602 1043 q 529 1078 557 1061 q 460 1105 489 1105 q 399 1044 408 1105 l 296 1044 z "},"Ö":{"ha":1090,"x_min":49,"x_max":1042,"o":"m 49 488 q 115 743 49 629 q 296 920 182 856 q 546 983 410 983 q 797 920 684 983 q 976 743 909 856 q 1042 488 1042 629 q 976 231 1042 345 q 796 54 909 118 q 546 -9 682 -9 q 296 54 410 -9 q 115 231 182 118 q 49 488 49 345 m 249 488 q 286 317 249 391 q 391 203 323 243 q 546 164 458 164 q 700 203 633 164 q 804 316 766 243 q 842 488 842 390 q 804 657 842 585 q 700 769 766 730 q 546 808 633 808 q 391 769 458 808 q 286 657 323 730 q 249 488 249 585 m 325 1154 q 351 1220 325 1193 q 417 1247 378 1247 q 483 1220 456 1247 q 510 1154 510 1193 q 483 1089 510 1116 q 417 1063 456 1063 q 351 1089 378 1063 q 325 1154 325 1116 m 582 1154 q 608 1220 582 1193 q 674 1247 635 1247 q 740 1220 713 1247 q 767 1154 767 1193 q 740 1089 767 1116 q 674 1063 713 1063 q 608 1089 635 1063 q 582 1154 582 1116 z "},"×":{"ha":930,"x_min":136,"x_max":794,"o":"m 136 298 l 338 501 l 142 697 l 268 823 l 464 628 l 660 823 l 787 697 l 591 501 l 794 297 l 667 171 l 464 374 l 262 172 l 136 298 z "},"Ø":{"ha":1090,"x_min":33,"x_max":1057,"o":"m 33 0 l 172 153 q 81 304 114 219 q 49 488 49 390 q 115 743 49 629 q 296 920 182 856 q 546 983 410 983 q 706 959 629 983 q 846 889 782 935 l 922 972 l 1057 972 l 920 821 q 1010 671 978 755 q 1042 488 1042 586 q 976 231 1042 345 q 796 54 909 118 q 546 -9 682 -9 q 386 15 463 -9 q 245 86 309 40 l 168 0 l 33 0 m 249 488 q 300 292 248 374 l 722 754 q 546 808 648 808 q 391 769 458 808 q 286 657 323 730 q 249 488 249 585 m 368 218 q 546 164 445 164 q 700 203 633 164 q 804 316 766 243 q 842 488 842 390 q 790 681 842 602 l 368 218 z "},"Ù":{"ha":968,"x_min":93,"x_max":876,"o":"m 93 371 l 93 970 l 288 970 l 288 370 q 339 219 288 271 q 484 167 390 167 q 629 219 578 167 q 681 370 681 271 l 681 970 l 876 970 l 876 371 q 823 162 876 248 q 680 34 770 77 q 481 -9 590 -9 q 284 34 372 -9 q 144 162 196 77 q 93 371 93 248 m 315 1171 l 315 1329 l 635 1164 l 635 1025 l 315 1171 z "},"Ú":{"ha":968,"x_min":93,"x_max":876,"o":"m 93 371 l 93 970 l 288 970 l 288 370 q 339 219 288 271 q 484 167 390 167 q 629 219 578 167 q 681 370 681 271 l 681 970 l 876 970 l 876 371 q 823 162 876 248 q 680 34 770 77 q 481 -9 590 -9 q 284 34 372 -9 q 144 162 196 77 q 93 371 93 248 m 315 1025 l 315 1164 l 635 1329 l 635 1171 l 315 1025 z "},"Û":{"ha":968,"x_min":93,"x_max":876,"o":"m 93 371 l 93 970 l 288 970 l 288 370 q 339 219 288 271 q 484 167 390 167 q 629 219 578 167 q 681 370 681 271 l 681 970 l 876 970 l 876 371 q 823 162 876 248 q 680 34 770 77 q 481 -9 590 -9 q 284 34 372 -9 q 144 162 196 77 q 93 371 93 248 m 277 1025 l 277 1166 l 485 1279 l 690 1166 l 690 1025 l 485 1141 l 277 1025 z "},"Ü":{"ha":968,"x_min":93,"x_max":876,"o":"m 93 371 l 93 970 l 288 970 l 288 370 q 339 219 288 271 q 484 167 390 167 q 629 219 578 167 q 681 370 681 271 l 681 970 l 876 970 l 876 371 q 823 162 876 248 q 680 34 770 77 q 481 -9 590 -9 q 284 34 372 -9 q 144 162 196 77 q 93 371 93 248 m 264 1154 q 290 1220 264 1193 q 356 1247 317 1247 q 422 1220 395 1247 q 449 1154 449 1193 q 422 1089 449 1116 q 356 1063 395 1063 q 290 1089 317 1063 q 264 1154 264 1116 m 521 1154 q 547 1220 521 1193 q 613 1247 574 1247 q 679 1220 652 1247 q 706 1154 706 1193 q 679 1089 706 1116 q 613 1063 652 1063 q 547 1089 574 1063 q 521 1154 521 1116 z "},"Ý":{"ha":883,"x_min":16,"x_max":867,"o":"m 16 970 l 235 970 l 443 526 l 650 970 l 867 970 l 539 338 l 539 0 l 345 0 l 345 338 l 16 970 m 273 1025 l 273 1164 l 593 1329 l 593 1171 l 273 1025 z "},"Þ":{"ha":844,"x_min":96,"x_max":803,"o":"m 96 0 l 96 971 l 289 971 l 289 782 l 453 782 q 645 743 566 782 q 763 637 724 704 q 803 486 803 571 q 766 342 803 408 q 651 234 729 275 q 453 192 572 192 l 290 192 l 290 0 l 96 0 m 290 340 l 444 340 q 563 379 524 340 q 603 486 603 418 q 563 593 603 554 q 444 632 524 632 l 290 632 l 290 340 z "},"ß":{"ha":1009,"x_min":72,"x_max":939,"o":"m 72 0 l 72 762 q 114 921 72 851 q 238 1031 155 991 q 439 1071 321 1071 q 618 1037 542 1071 q 734 947 694 1003 q 774 825 774 890 q 743 713 774 758 q 659 618 713 668 q 616 575 629 591 q 603 545 603 559 q 630 503 603 521 q 739 456 657 485 q 892 363 845 418 q 939 224 939 309 q 860 52 939 117 q 648 -14 782 -14 q 435 54 516 -14 q 340 245 354 122 l 528 245 q 562 163 532 193 q 646 134 593 134 q 720 153 694 134 q 746 211 746 172 q 720 274 746 250 q 625 322 694 298 q 458 406 509 362 q 407 514 407 449 q 431 596 407 560 q 501 676 456 632 q 560 743 541 716 q 579 802 579 770 q 539 880 579 852 q 432 908 500 908 q 306 866 346 908 q 267 743 267 823 l 267 0 l 72 0 z "},"à":{"ha":941,"x_min":46,"x_max":847,"o":"m 46 387 q 93 594 46 504 q 219 733 139 685 q 397 782 298 782 q 548 747 484 782 q 652 660 612 713 l 652 770 l 847 770 l 847 0 l 652 0 l 652 113 q 548 23 614 58 q 396 -12 482 -12 q 219 38 299 -12 q 93 178 139 87 q 46 387 46 269 m 244 387 q 273 266 244 318 q 348 186 301 214 q 447 158 395 158 q 549 185 501 158 q 624 263 596 212 q 652 385 652 314 q 624 506 652 456 q 549 584 596 557 q 447 611 501 611 q 347 585 393 611 q 273 508 301 558 q 244 387 244 457 m 305 970 l 305 1128 l 625 962 l 625 823 l 305 970 z "},"á":{"ha":941,"x_min":46,"x_max":847,"o":"m 46 387 q 93 594 46 504 q 219 733 139 685 q 397 782 298 782 q 548 747 484 782 q 652 660 612 713 l 652 770 l 847 770 l 847 0 l 652 0 l 652 113 q 548 23 614 58 q 396 -12 482 -12 q 219 38 299 -12 q 93 178 139 87 q 46 387 46 269 m 244 387 q 273 266 244 318 q 348 186 301 214 q 447 158 395 158 q 549 185 501 158 q 624 263 596 212 q 652 385 652 314 q 624 506 652 456 q 549 584 596 557 q 447 611 501 611 q 347 585 393 611 q 273 508 301 558 q 244 387 244 457 m 305 823 l 305 962 l 625 1128 l 625 970 l 305 823 z "},"â":{"ha":941,"x_min":46,"x_max":847,"o":"m 46 387 q 93 594 46 504 q 219 733 139 685 q 397 782 298 782 q 548 747 484 782 q 652 660 612 713 l 652 770 l 847 770 l 847 0 l 652 0 l 652 113 q 548 23 614 58 q 396 -12 482 -12 q 219 38 299 -12 q 93 178 139 87 q 46 387 46 269 m 244 387 q 273 266 244 318 q 348 186 301 214 q 447 158 395 158 q 549 185 501 158 q 624 263 596 212 q 652 385 652 314 q 624 506 652 456 q 549 584 596 557 q 447 611 501 611 q 347 585 393 611 q 273 508 301 558 q 244 387 244 457 m 267 823 l 267 965 l 474 1078 l 680 965 l 680 823 l 474 940 l 267 823 z "},"ã":{"ha":941,"x_min":46,"x_max":847,"o":"m 46 387 q 93 594 46 504 q 219 733 139 685 q 397 782 298 782 q 548 747 484 782 q 652 660 612 713 l 652 770 l 847 770 l 847 0 l 652 0 l 652 113 q 548 23 614 58 q 396 -12 482 -12 q 219 38 299 -12 q 93 178 139 87 q 46 387 46 269 m 223 843 q 281 980 236 935 q 395 1025 326 1025 q 447 1016 425 1025 q 497 990 469 1007 q 566 964 538 964 q 626 1023 618 964 l 730 1023 q 673 887 718 932 q 558 842 627 842 q 507 851 529 842 q 456 876 484 860 q 387 904 416 904 q 326 843 336 904 l 223 843 m 244 387 q 273 266 244 318 q 348 186 301 214 q 447 158 395 158 q 549 185 501 158 q 624 263 596 212 q 652 385 652 314 q 624 506 652 456 q 549 584 596 557 q 447 611 501 611 q 347 585 393 611 q 273 508 301 558 q 244 387 244 457 z "},"ä":{"ha":941,"x_min":46,"x_max":847,"o":"m 46 387 q 93 594 46 504 q 219 733 139 685 q 397 782 298 782 q 548 747 484 782 q 652 660 612 713 l 652 770 l 847 770 l 847 0 l 652 0 l 652 113 q 548 23 614 58 q 396 -12 482 -12 q 219 38 299 -12 q 93 178 139 87 q 46 387 46 269 m 244 387 q 273 266 244 318 q 348 186 301 214 q 447 158 395 158 q 549 185 501 158 q 624 263 596 212 q 652 385 652 314 q 624 506 652 456 q 549 584 596 557 q 447 611 501 611 q 347 585 393 611 q 273 508 301 558 q 244 387 244 457 m 252 953 q 279 1019 252 991 q 345 1046 305 1046 q 410 1019 383 1046 q 437 953 437 991 q 410 888 437 914 q 345 861 383 861 q 279 888 305 861 q 252 953 252 914 m 509 953 q 536 1019 509 991 q 602 1046 562 1046 q 667 1019 640 1046 q 694 953 694 991 q 667 888 694 914 q 602 861 640 861 q 536 888 562 861 q 509 953 509 914 z "},"å":{"ha":941,"x_min":46,"x_max":847,"o":"m 46 387 q 93 594 46 504 q 219 733 139 685 q 397 782 298 782 q 548 747 484 782 q 652 660 612 713 l 652 770 l 847 770 l 847 0 l 652 0 l 652 113 q 548 23 614 58 q 396 -12 482 -12 q 219 38 299 -12 q 93 178 139 87 q 46 387 46 269 m 244 387 q 273 266 244 318 q 348 186 301 214 q 447 158 395 158 q 549 185 501 158 q 624 263 596 212 q 652 385 652 314 q 624 506 652 456 q 549 584 596 557 q 447 611 501 611 q 347 585 393 611 q 273 508 301 558 q 244 387 244 457 m 311 996 q 358 1112 311 1067 q 473 1156 406 1156 q 589 1112 543 1156 q 636 996 636 1068 q 589 880 636 924 q 473 836 543 836 q 358 880 406 836 q 311 996 311 924 m 407 996 q 426 946 407 966 q 473 926 446 926 q 520 946 501 926 q 540 996 540 966 q 520 1047 540 1028 q 473 1065 501 1065 q 426 1047 446 1065 q 407 996 407 1028 z "},"æ":{"ha":1495,"x_min":46,"x_max":1451,"o":"m 46 387 q 93 595 46 505 q 221 733 139 685 q 404 782 302 782 q 659 661 566 782 l 659 770 l 833 770 l 833 661 q 949 753 884 724 q 1099 782 1014 782 q 1281 734 1202 782 q 1406 600 1361 686 q 1451 403 1451 513 q 1444 330 1451 372 l 851 330 q 920 196 862 243 q 1050 149 978 149 q 1160 174 1116 149 q 1221 241 1203 199 l 1430 241 q 1311 59 1398 130 q 1099 -12 1223 -12 q 944 22 1014 -12 q 833 114 873 57 l 833 0 l 656 0 l 656 114 q 546 22 613 57 q 397 -12 479 -12 q 220 38 300 -12 q 93 178 139 87 q 46 387 46 269 m 244 387 q 273 266 244 318 q 348 186 301 214 q 447 158 395 158 q 549 185 501 158 q 624 263 596 212 q 652 385 652 314 q 624 506 652 455 q 549 584 596 557 q 447 611 501 611 q 347 585 393 611 q 273 508 301 558 q 244 387 244 457 m 851 449 l 1250 449 q 1193 575 1249 528 q 1054 623 1137 623 q 921 576 977 623 q 851 449 865 529 z "},"ç":{"ha":836,"x_min":46,"x_max":789,"o":"m 46 385 q 95 594 46 504 q 229 733 143 684 q 427 782 315 782 q 663 710 570 782 q 789 510 757 639 l 579 510 q 523 588 562 560 q 425 616 484 616 q 293 556 342 616 q 244 385 244 496 q 293 214 244 275 q 425 154 342 154 q 579 260 543 154 l 789 260 q 681 76 760 147 q 485 -8 603 5 l 485 -62 q 613 -101 562 -62 q 665 -214 665 -140 q 612 -329 665 -289 q 481 -370 558 -370 l 283 -370 l 283 -256 l 449 -256 q 499 -246 482 -256 q 517 -211 517 -236 q 499 -177 517 -186 q 449 -168 482 -168 l 363 -168 l 363 -8 q 197 58 269 5 q 85 194 125 110 q 46 385 46 278 z "},"è":{"ha":857,"x_min":46,"x_max":811,"o":"m 46 385 q 95 594 46 504 q 231 733 143 685 q 432 782 318 782 q 629 735 542 782 q 763 601 715 688 q 811 401 811 514 q 806 326 811 359 l 243 326 q 301 196 250 243 q 428 149 353 149 q 582 241 536 149 l 791 241 q 664 59 758 130 q 432 -12 570 -12 q 233 37 321 -12 q 95 176 144 86 q 46 385 46 267 m 244 457 l 610 457 q 555 577 608 532 q 427 623 503 623 q 305 578 355 623 q 244 457 256 534 m 261 972 l 261 1131 l 581 965 l 581 826 l 261 972 z "},"é":{"ha":857,"x_min":46,"x_max":811,"o":"m 46 385 q 95 594 46 504 q 231 733 143 685 q 432 782 318 782 q 629 735 542 782 q 763 601 715 688 q 811 401 811 514 q 806 326 811 359 l 243 326 q 301 196 250 243 q 428 149 353 149 q 582 241 536 149 l 791 241 q 664 59 758 130 q 432 -12 570 -12 q 233 37 321 -12 q 95 176 144 86 q 46 385 46 267 m 244 457 l 610 457 q 555 577 608 532 q 427 623 503 623 q 305 578 355 623 q 244 457 256 534 m 261 826 l 261 965 l 581 1131 l 581 972 l 261 826 z "},"ê":{"ha":857,"x_min":46,"x_max":811,"o":"m 46 385 q 95 594 46 504 q 231 733 143 685 q 432 782 318 782 q 629 735 542 782 q 763 601 715 688 q 811 401 811 514 q 806 326 811 359 l 243 326 q 301 196 250 243 q 428 149 353 149 q 582 241 536 149 l 791 241 q 664 59 758 130 q 432 -12 570 -12 q 233 37 321 -12 q 95 176 144 86 q 46 385 46 267 m 222 826 l 222 968 l 429 1080 l 635 968 l 635 826 l 429 943 l 222 826 m 244 457 l 610 457 q 555 577 608 532 q 427 623 503 623 q 305 578 355 623 q 244 457 256 534 z "},"ë":{"ha":857,"x_min":46,"x_max":811,"o":"m 46 385 q 95 594 46 504 q 231 733 143 685 q 432 782 318 782 q 629 735 542 782 q 763 601 715 688 q 811 401 811 514 q 806 326 811 359 l 243 326 q 301 196 250 243 q 428 149 353 149 q 582 241 536 149 l 791 241 q 664 59 758 130 q 432 -12 570 -12 q 233 37 321 -12 q 95 176 144 86 q 46 385 46 267 m 208 956 q 235 1021 208 994 q 300 1048 261 1048 q 366 1021 339 1048 q 393 956 393 994 q 366 890 393 917 q 300 864 339 864 q 235 890 261 864 q 208 956 208 917 m 244 457 l 610 457 q 555 577 608 532 q 427 623 503 623 q 305 578 355 623 q 244 457 256 534 m 465 956 q 492 1021 465 994 q 557 1048 518 1048 q 623 1021 596 1048 q 650 956 650 994 q 623 890 650 917 q 557 864 596 864 q 492 890 518 864 q 465 956 465 917 z "},"ì":{"ha":402,"x_min":33,"x_max":353,"o":"m 33 970 l 33 1128 l 353 962 l 353 823 l 33 970 m 104 0 l 104 770 l 298 770 l 298 0 l 104 0 z "},"í":{"ha":402,"x_min":33,"x_max":353,"o":"m 33 823 l 33 962 l 353 1128 l 353 970 l 33 823 m 104 0 l 104 770 l 298 770 l 298 0 l 104 0 z "},"î":{"ha":402,"x_min":-5,"x_max":408,"o":"m -5 823 l -5 965 l 203 1078 l 408 965 l 408 823 l 203 940 l -5 823 m 104 0 l 104 770 l 298 770 l 298 0 l 104 0 z "},"ï":{"ha":402,"x_min":-20,"x_max":422,"o":"m -20 953 q 7 1019 -20 991 q 73 1046 33 1046 q 138 1019 111 1046 q 165 953 165 991 q 138 888 165 914 q 73 861 111 861 q 7 888 33 861 q -20 953 -20 914 m 104 0 l 104 770 l 298 770 l 298 0 l 104 0 m 237 953 q 264 1019 237 991 q 330 1046 290 1046 q 395 1019 368 1046 q 422 953 422 991 q 395 888 422 914 q 330 861 368 861 q 264 888 290 861 q 237 953 237 914 z "},"ð":{"ha":886,"x_min":46,"x_max":840,"o":"m 46 386 q 97 594 46 504 q 233 732 147 684 q 425 781 319 781 q 618 718 532 781 q 528 867 585 795 l 367 817 l 367 905 l 465 937 q 367 1028 432 973 l 553 1028 q 603 981 571 1013 l 758 1029 l 758 940 l 665 911 q 795 687 750 806 q 840 440 840 568 q 788 194 840 296 q 646 40 736 92 q 440 -11 555 -11 q 239 38 329 -11 q 98 178 150 87 q 46 386 46 268 m 245 385 q 302 214 245 273 q 440 154 358 154 q 539 180 493 154 q 612 258 585 205 q 640 385 640 310 q 612 512 640 460 q 539 589 585 564 q 441 615 493 615 q 344 589 389 615 q 273 512 300 564 q 245 385 245 460 z "},"ñ":{"ha":918,"x_min":96,"x_max":829,"o":"m 96 0 l 96 770 l 290 770 l 290 673 q 390 752 329 724 q 522 781 450 781 q 745 694 660 781 q 829 452 829 607 l 829 0 l 635 0 l 635 425 q 589 566 635 517 q 464 615 543 615 q 337 566 383 615 q 290 425 290 517 l 290 0 l 96 0 m 232 843 q 290 980 245 935 q 404 1025 335 1025 q 456 1016 433 1025 q 506 990 478 1007 q 575 964 547 964 q 635 1023 627 964 l 739 1023 q 682 887 727 932 q 567 842 636 842 q 515 851 538 842 q 465 876 493 860 q 396 904 425 904 q 335 843 345 904 l 232 843 z "},"ò":{"ha":886,"x_min":47,"x_max":839,"o":"m 47 385 q 99 593 47 503 q 241 733 151 684 q 443 782 332 782 q 644 733 554 782 q 787 593 734 684 q 839 385 839 503 q 785 176 839 267 q 641 37 732 86 q 437 -12 550 -12 q 237 37 326 -12 q 98 176 149 86 q 47 385 47 267 m 244 385 q 299 216 244 275 q 437 157 354 157 q 537 182 490 157 q 611 260 583 208 q 639 385 639 311 q 581 553 639 494 q 440 612 524 612 q 300 553 357 612 q 244 385 244 494 m 283 979 l 283 1137 l 603 972 l 603 833 l 283 979 z "},"ó":{"ha":886,"x_min":47,"x_max":839,"o":"m 47 385 q 99 593 47 503 q 241 733 151 684 q 443 782 332 782 q 644 733 554 782 q 787 593 734 684 q 839 385 839 503 q 785 176 839 267 q 641 37 732 86 q 437 -12 550 -12 q 237 37 326 -12 q 98 176 149 86 q 47 385 47 267 m 244 385 q 299 216 244 275 q 437 157 354 157 q 537 182 490 157 q 611 260 583 208 q 639 385 639 311 q 581 553 639 494 q 440 612 524 612 q 300 553 357 612 q 244 385 244 494 m 283 833 l 283 972 l 603 1137 l 603 979 l 283 833 z "},"ô":{"ha":886,"x_min":47,"x_max":839,"o":"m 47 385 q 99 593 47 503 q 241 733 151 684 q 443 782 332 782 q 644 733 554 782 q 787 593 734 684 q 839 385 839 503 q 785 176 839 267 q 641 37 732 86 q 437 -12 550 -12 q 237 37 326 -12 q 98 176 149 86 q 47 385 47 267 m 244 385 q 299 216 244 275 q 437 157 354 157 q 537 182 490 157 q 611 260 583 208 q 639 385 639 311 q 581 553 639 494 q 440 612 524 612 q 300 553 357 612 q 244 385 244 494 m 244 833 l 244 975 l 452 1087 l 657 975 l 657 833 l 452 949 l 244 833 z "},"õ":{"ha":886,"x_min":47,"x_max":839,"o":"m 47 385 q 99 593 47 503 q 241 733 151 684 q 443 782 332 782 q 644 733 554 782 q 787 593 734 684 q 839 385 839 503 q 785 176 839 267 q 641 37 732 86 q 437 -12 550 -12 q 237 37 326 -12 q 98 176 149 86 q 47 385 47 267 m 201 852 q 259 989 214 944 q 374 1034 304 1034 q 425 1025 403 1034 q 475 1000 448 1017 q 545 973 517 973 q 604 1033 596 973 l 709 1033 q 651 896 696 941 q 536 851 606 851 q 485 860 507 851 q 435 886 463 869 q 366 913 395 913 q 304 852 314 913 l 201 852 m 244 385 q 299 216 244 275 q 437 157 354 157 q 537 182 490 157 q 611 260 583 208 q 639 385 639 311 q 581 553 639 494 q 440 612 524 612 q 300 553 357 612 q 244 385 244 494 z "},"ö":{"ha":886,"x_min":47,"x_max":839,"o":"m 47 385 q 99 593 47 503 q 241 733 151 684 q 443 782 332 782 q 644 733 554 782 q 787 593 734 684 q 839 385 839 503 q 785 176 839 267 q 641 37 732 86 q 437 -12 550 -12 q 237 37 326 -12 q 98 176 149 86 q 47 385 47 267 m 230 962 q 256 1028 230 1001 q 322 1055 283 1055 q 388 1028 361 1055 q 415 962 415 1001 q 388 897 415 924 q 322 871 361 871 q 256 897 283 871 q 230 962 230 924 m 244 385 q 299 216 244 275 q 437 157 354 157 q 537 182 490 157 q 611 260 583 208 q 639 385 639 311 q 581 553 639 494 q 440 612 524 612 q 300 553 357 612 q 244 385 244 494 m 487 962 q 513 1028 487 1001 q 579 1055 540 1055 q 645 1028 618 1055 q 672 962 672 1001 q 645 897 672 924 q 579 871 618 871 q 513 897 540 871 q 487 962 487 924 z "},"÷":{"ha":900,"x_min":102,"x_max":810,"o":"m 102 411 l 102 581 l 810 581 l 810 411 l 102 411 m 339 191 q 373 272 339 239 q 460 304 407 304 q 545 272 511 304 q 578 191 578 239 q 545 109 578 142 q 460 77 511 77 q 373 109 407 77 q 339 191 339 142 m 339 803 q 373 884 339 852 q 460 917 407 917 q 545 884 511 917 q 578 803 578 851 q 545 722 578 754 q 460 689 511 689 q 373 722 407 689 q 339 803 339 754 z "},"ø":{"ha":880,"x_min":29,"x_max":851,"o":"m 29 0 l 136 117 q 68 238 92 170 q 45 385 45 306 q 97 593 45 503 q 239 733 149 684 q 440 782 329 782 q 679 710 578 782 l 733 770 l 851 770 l 743 652 q 812 532 788 600 q 836 385 836 464 q 783 176 836 267 q 638 37 729 86 q 435 -12 547 -12 q 200 58 301 -12 l 147 0 l 29 0 m 241 385 q 267 260 241 314 l 555 575 q 437 612 504 612 q 298 553 354 612 q 241 385 241 494 m 323 192 q 435 157 371 157 q 534 182 488 157 q 608 260 581 208 q 636 385 636 311 q 611 507 636 453 l 323 192 z "},"ù":{"ha":918,"x_min":89,"x_max":822,"o":"m 89 318 l 89 770 l 283 770 l 283 346 q 329 205 283 254 q 454 155 375 155 q 581 205 535 155 q 627 346 627 254 l 627 770 l 822 770 l 822 0 l 627 0 l 627 97 q 529 19 589 47 q 397 -9 468 -9 q 238 28 307 -9 q 129 141 168 66 q 89 318 89 215 m 292 970 l 292 1128 l 612 962 l 612 823 l 292 970 z "},"ú":{"ha":918,"x_min":89,"x_max":822,"o":"m 89 318 l 89 770 l 283 770 l 283 346 q 329 205 283 254 q 454 155 375 155 q 581 205 535 155 q 627 346 627 254 l 627 770 l 822 770 l 822 0 l 627 0 l 627 97 q 529 19 589 47 q 397 -9 468 -9 q 238 28 307 -9 q 129 141 168 66 q 89 318 89 215 m 292 823 l 292 962 l 612 1128 l 612 970 l 292 823 z "},"û":{"ha":918,"x_min":89,"x_max":822,"o":"m 89 318 l 89 770 l 283 770 l 283 346 q 329 205 283 254 q 454 155 375 155 q 581 205 535 155 q 627 346 627 254 l 627 770 l 822 770 l 822 0 l 627 0 l 627 97 q 529 19 589 47 q 397 -9 468 -9 q 238 28 307 -9 q 129 141 168 66 q 89 318 89 215 m 252 823 l 252 965 l 460 1078 l 665 965 l 665 823 l 460 940 l 252 823 z "},"ü":{"ha":918,"x_min":89,"x_max":822,"o":"m 89 318 l 89 770 l 283 770 l 283 346 q 329 205 283 254 q 454 155 375 155 q 581 205 535 155 q 627 346 627 254 l 627 770 l 822 770 l 822 0 l 627 0 l 627 97 q 529 19 589 47 q 397 -9 468 -9 q 238 28 307 -9 q 129 141 168 66 q 89 318 89 215 m 239 953 q 265 1019 239 991 q 331 1046 292 1046 q 397 1019 370 1046 q 424 953 424 991 q 397 888 424 914 q 331 861 370 861 q 265 888 292 861 q 239 953 239 914 m 496 953 q 522 1019 496 991 q 588 1046 549 1046 q 654 1019 627 1046 q 681 953 681 991 q 654 888 681 914 q 588 861 627 861 q 522 888 549 861 q 496 953 496 914 z "},"ý":{"ha":840,"x_min":7,"x_max":832,"o":"m 7 770 l 225 770 l 424 232 l 625 770 l 832 770 l 355 -364 l 149 -364 l 315 20 l 7 770 m 252 823 l 252 962 l 572 1128 l 572 970 l 252 823 z "},"þ":{"ha":941,"x_min":96,"x_max":896,"o":"m 96 -367 l 96 1028 l 290 1028 l 290 650 q 392 746 329 711 q 539 781 456 781 q 720 731 637 781 q 849 591 802 681 q 896 386 896 501 q 849 180 896 271 q 720 39 802 89 q 539 -11 637 -11 q 393 26 456 -11 q 290 129 330 64 l 290 -367 l 96 -367 m 290 385 q 319 262 290 314 q 395 184 349 211 q 494 158 441 158 q 594 184 547 158 q 669 263 640 211 q 697 386 697 315 q 669 508 697 457 q 594 585 640 559 q 494 611 547 611 q 395 585 441 611 q 319 507 349 558 q 290 385 290 456 z "},"ÿ":{"ha":840,"x_min":7,"x_max":832,"o":"m 7 770 l 225 770 l 424 232 l 625 770 l 832 770 l 355 -364 l 149 -364 l 315 20 l 7 770 m 199 953 q 226 1019 199 991 q 292 1046 252 1046 q 357 1019 330 1046 q 385 953 385 991 q 357 888 385 914 q 292 861 330 861 q 226 888 252 861 q 199 953 199 914 m 456 953 q 483 1019 456 991 q 549 1046 509 1046 q 614 1019 587 1046 q 642 953 642 991 q 614 888 642 914 q 549 861 587 861 q 483 888 509 861 q 456 953 456 914 z "},"Œ":{"ha":1489,"x_min":49,"x_max":1409,"o":"m 49 486 q 113 743 49 629 q 288 920 178 856 q 529 983 399 983 q 708 949 627 983 q 846 846 789 914 l 846 970 l 1409 970 l 1409 817 l 1040 817 l 1040 566 l 1367 566 l 1367 416 l 1040 416 l 1040 154 l 1409 154 l 1409 0 l 846 0 l 846 129 q 530 -11 734 -9 q 288 53 398 -11 q 113 230 178 117 q 49 486 49 343 m 249 486 q 286 318 249 390 q 391 206 323 245 q 546 167 458 167 q 700 206 633 167 q 804 318 766 245 q 842 486 842 390 q 804 654 842 582 q 700 765 766 726 q 546 804 633 804 q 391 765 458 804 q 286 654 323 726 q 249 486 249 582 z "},"œ":{"ha":1461,"x_min":46,"x_max":1407,"o":"m 46 385 q 98 593 46 503 q 241 733 150 684 q 443 782 332 782 q 608 746 532 782 q 737 643 685 710 q 861 746 786 709 q 1028 782 936 782 q 1224 735 1138 782 q 1359 602 1311 688 q 1407 403 1407 515 q 1401 330 1407 363 l 839 330 q 894 196 844 243 q 1019 149 943 149 q 1174 241 1128 149 l 1383 241 q 1255 59 1350 130 q 1022 -12 1160 -12 q 859 24 932 -12 q 736 129 786 61 q 606 24 684 61 q 437 -12 528 -12 q 237 37 326 -12 q 97 176 147 86 q 46 385 46 267 m 244 385 q 300 214 244 275 q 437 154 355 154 q 537 180 490 154 q 611 259 583 207 q 639 385 639 311 q 611 510 639 458 q 538 589 583 562 q 439 615 493 615 q 342 589 386 615 q 271 510 298 562 q 244 385 244 458 m 840 444 l 1206 444 q 1152 574 1204 526 q 1022 623 1100 623 q 898 575 948 623 q 840 444 848 528 z "},"Ÿ":{"ha":883,"x_min":16,"x_max":867,"o":"m 16 970 l 235 970 l 443 526 l 650 970 l 867 970 l 539 338 l 539 0 l 345 0 l 345 338 l 16 970 m 220 1154 q 247 1220 220 1193 q 313 1247 273 1247 q 378 1220 351 1247 q 406 1154 406 1193 q 378 1089 406 1116 q 313 1063 351 1063 q 247 1089 273 1063 q 220 1154 220 1116 m 477 1154 q 504 1220 477 1193 q 570 1247 530 1247 q 635 1220 608 1247 q 663 1154 663 1193 q 635 1089 663 1116 q 570 1063 608 1063 q 504 1089 530 1063 q 477 1154 477 1116 z "},"ˆ":{"ha":440,"x_min":14,"x_max":427,"o":"m 14 823 l 14 965 l 221 1078 l 427 965 l 427 823 l 221 940 l 14 823 z "},"˜":{"ha":529,"x_min":11,"x_max":518,"o":"m 11 843 q 69 980 24 935 q 183 1025 114 1025 q 235 1016 212 1025 q 285 990 257 1007 q 354 964 326 964 q 414 1023 406 964 l 518 1023 q 460 887 506 932 q 346 842 415 842 q 294 851 317 842 q 244 876 272 860 q 175 904 204 904 q 114 843 123 904 l 11 843 z "}," ":{"ha":678,"x_min":0,"x_max":0,"o":""}," ":{"ha":1357,"x_min":0,"x_max":0,"o":""}," ":{"ha":678,"x_min":0,"x_max":0,"o":""}," ":{"ha":1357,"x_min":0,"x_max":0,"o":""}," ":{"ha":452,"x_min":0,"x_max":0,"o":""}," ":{"ha":339,"x_min":0,"x_max":0,"o":""}," ":{"ha":226,"x_min":0,"x_max":0,"o":""}," ":{"ha":226,"x_min":0,"x_max":0,"o":""}," ":{"ha":170,"x_min":0,"x_max":0,"o":""}," ":{"ha":271,"x_min":0,"x_max":0,"o":""}," ":{"ha":75,"x_min":0,"x_max":0,"o":""},"‐":{"ha":809,"x_min":98,"x_max":688,"o":"m 98 414 l 98 578 l 688 578 l 688 414 l 98 414 z "},"‑":{"ha":809,"x_min":98,"x_max":688,"o":"m 98 414 l 98 578 l 688 578 l 688 414 l 98 414 z "},"‒":{"ha":809,"x_min":98,"x_max":688,"o":"m 98 414 l 98 578 l 688 578 l 688 414 l 98 414 z "},"–":{"ha":975,"x_min":110,"x_max":865,"o":"m 110 414 l 110 578 l 865 578 l 865 414 l 110 414 z "},"—":{"ha":1287,"x_min":110,"x_max":1178,"o":"m 110 414 l 110 578 l 1178 578 l 1178 414 l 110 414 z "},"‘":{"ha":382,"x_min":43,"x_max":328,"o":"m 43 619 l 193 970 l 328 970 l 249 619 l 43 619 z "},"’":{"ha":382,"x_min":56,"x_max":339,"o":"m 56 619 l 135 970 l 339 970 l 189 619 l 56 619 z "},"‚":{"ha":349,"x_min":20,"x_max":304,"o":"m 20 -144 l 98 205 l 304 205 l 154 -144 l 20 -144 z "},"“":{"ha":662,"x_min":43,"x_max":608,"o":"m 43 619 l 193 970 l 328 970 l 249 619 l 43 619 m 323 619 l 473 970 l 608 970 l 529 619 l 323 619 z "},"”":{"ha":662,"x_min":56,"x_max":619,"o":"m 56 619 l 135 970 l 339 970 l 189 619 l 56 619 m 336 619 l 415 970 l 619 970 l 469 619 l 336 619 z "},"„":{"ha":630,"x_min":21,"x_max":586,"o":"m 21 -144 l 100 205 l 304 205 l 154 -144 l 21 -144 m 301 -144 l 380 205 l 586 205 l 436 -144 l 301 -144 z "},"•":{"ha":667,"x_min":139,"x_max":528,"o":"m 139 463 q 165 561 139 517 q 235 631 191 606 q 332 657 279 657 q 431 631 386 657 q 502 561 476 606 q 528 463 528 517 q 502 365 528 410 q 431 295 476 321 q 332 269 386 269 q 235 295 279 269 q 165 365 191 321 q 139 463 139 410 z "},"…":{"ha":965,"x_min":61,"x_max":909,"o":"m 61 104 q 95 186 61 153 q 182 218 129 218 q 267 185 233 218 q 300 104 300 153 q 267 23 300 56 q 182 -9 233 -9 q 95 23 129 -9 q 61 104 61 56 m 366 104 q 399 186 366 153 q 486 218 433 218 q 571 185 538 218 q 604 104 604 153 q 571 23 604 56 q 486 -9 538 -9 q 399 23 433 -9 q 366 104 366 56 m 671 104 q 705 186 671 153 q 791 218 739 218 q 876 185 843 218 q 909 104 909 153 q 876 23 909 56 q 791 -9 843 -9 q 705 23 739 -9 q 671 104 671 56 z "}," ":{"ha":271,"x_min":0,"x_max":0,"o":""},"‹":{"ha":439,"x_min":62,"x_max":370,"o":"m 62 410 l 184 653 l 370 653 l 241 410 l 370 167 l 184 167 l 62 410 z "},"›":{"ha":439,"x_min":69,"x_max":376,"o":"m 69 167 l 196 410 l 69 653 l 253 653 l 376 410 l 253 167 l 69 167 z "}," ":{"ha":339,"x_min":0,"x_max":0,"o":""},"€":{"ha":1109,"x_min":32,"x_max":1071,"o":"m 32 321 l 32 436 l 127 436 q 125 486 125 469 q 127 539 125 506 l 32 539 l 32 654 l 151 654 q 326 893 200 804 q 616 982 452 982 q 901 899 779 982 q 1071 668 1022 815 l 848 668 q 754 769 814 734 q 615 803 694 803 q 465 764 530 803 q 363 654 399 725 l 629 654 l 629 539 l 328 539 q 325 486 325 506 q 328 436 325 469 l 629 436 l 629 321 l 361 321 q 464 210 397 250 q 615 170 530 170 q 754 204 694 170 q 848 306 814 239 l 1071 306 q 901 75 1022 157 q 616 -8 779 -8 q 324 81 450 -8 q 150 321 199 171 l 32 321 z "},"™":{"ha":1172,"x_min":35,"x_max":1099,"o":"m 35 865 l 35 979 l 403 979 l 403 865 l 292 865 l 292 490 l 146 490 l 147 865 l 35 865 m 479 490 l 479 979 l 672 979 l 790 665 l 918 979 l 1099 979 l 1099 490 l 964 490 l 961 798 l 835 490 l 736 490 l 610 808 l 610 490 l 479 490 z "},"◼":{"ha":770,"x_min":0,"x_max":771,"o":"m 0 0 l 0 771 l 771 771 l 771 0 l 0 0 z "},"ﬁ":{"ha":866,"x_min":29,"x_max":786,"o":"m 29 610 l 29 770 l 117 770 l 117 808 q 196 1017 117 950 q 435 1079 275 1083 l 435 916 q 341 892 368 917 q 314 802 314 867 l 314 770 l 762 770 l 762 0 l 568 0 l 568 610 l 314 610 l 314 0 l 117 0 l 117 610 l 29 610 m 547 966 q 581 1047 547 1015 q 665 1079 614 1079 q 752 1047 718 1079 q 786 966 786 1015 q 752 886 786 918 q 665 854 718 854 q 581 886 614 854 q 547 966 547 918 z "},"ﬂ":{"ha":865,"x_min":29,"x_max":770,"o":"m 29 610 l 29 770 l 117 770 l 117 808 q 197 1017 117 950 q 440 1079 278 1083 l 440 916 q 342 892 370 917 q 314 802 314 867 l 314 770 l 449 770 l 449 610 l 314 610 l 314 0 l 117 0 l 117 610 l 29 610 m 575 0 l 575 1028 l 770 1028 l 770 0 l 575 0 z "}}}
